<?xml version="1.0" encoding="utf-8" standalone="no"?>
<!DOCTYPE svg PUBLIC "-//W3C//DTD SVG 1.1//EN"
  "http://www.w3.org/Graphics/SVG/1.1/DTD/svg11.dtd">
<svg xmlns:xlink="http://www.w3.org/1999/xlink" width="518.4pt" height="345.6pt" viewBox="0 0 518.4 345.6" xmlns="http://www.w3.org/2000/svg" version="1.1">
 <metadata>
  <rdf:RDF xmlns:dc="http://purl.org/dc/elements/1.1/" xmlns:cc="http://creativecommons.org/ns#" xmlns:rdf="http://www.w3.org/1999/02/22-rdf-syntax-ns#">
   <cc:Work>
    <dc:type rdf:resource="http://purl.org/dc/dcmitype/StillImage"/>
    <dc:format>image/svg+xml</dc:format>
    <dc:creator>
     <cc:Agent>
      <dc:title>Matplotlib v3.11.1, https://matplotlib.org/</dc:title>
     </cc:Agent>
    </dc:creator>
   </cc:Work>
  </rdf:RDF>
 </metadata>
 <defs>
  <style type="text/css">*{stroke-linejoin: round; stroke-linecap: butt}</style>
 </defs>
 <g id="figure_1">
  <g id="patch_1">
   <path d="M 0 345.6 
L 518.4 345.6 
L 518.4 0 
L 0 0 
z
" style="fill: #ffffff"/>
  </g>
  <g id="axes_1">
   <g id="patch_2">
    <path d="M 47.962344 303.477656 
L 499.68 303.477656 
L 499.68 26.16 
L 47.962344 26.16 
z
" style="fill: #ffffff"/>
   </g>
   <g id="matplotlib.axis_1">
    <g id="xtick_1">
     <g id="line2d_1">
      <path d="M 47.962344 303.477656 
L 47.962344 26.16 
" clip-path="url(#p51cfa5770a)" style="fill: none; stroke: #b0b0b0; stroke-opacity: 0.2; stroke-width: 0.8; stroke-linecap: square"/>
     </g>
     <g id="line2d_2">
      <defs>
       <path id="m7fa5925272" d="M 0 0 
L 0 3.5 
" style="stroke: #000000; stroke-width: 0.8"/>
      </defs>
      <g>
       <use xlink:href="#m7fa5925272" x="47.962344" y="303.477656" style="stroke: #000000; stroke-width: 0.8"/>
      </g>
     </g>
     <g id="text_1">
      <!-- 0.0 -->
      <g transform="translate(40.010781 318.075312) scale(0.1 -0.1)">
       <defs>
        <path id="DejaVuSans-13" d="M 2034 4250 
Q 1547 4250 1301 3770 
Q 1056 3291 1056 2328 
Q 1056 1369 1301 889 
Q 1547 409 2034 409 
Q 2525 409 2770 889 
Q 3016 1369 3016 2328 
Q 3016 3291 2770 3770 
Q 2525 4250 2034 4250 
z
M 2034 4750 
Q 2819 4750 3233 4129 
Q 3647 3509 3647 2328 
Q 3647 1150 3233 529 
Q 2819 -91 2034 -91 
Q 1250 -91 836 529 
Q 422 1150 422 2328 
Q 422 3509 836 4129 
Q 1250 4750 2034 4750 
z
" transform="scale(0.015625)"/>
        <path id="DejaVuSans-11" d="M 684 794 
L 1344 794 
L 1344 0 
L 684 0 
L 684 794 
z
" transform="scale(0.015625)"/>
       </defs>
       <use xlink:href="#DejaVuSans-13"/>
       <use xlink:href="#DejaVuSans-11" transform="translate(63.625 0)"/>
       <use xlink:href="#DejaVuSans-13" transform="translate(95.40625 0)"/>
      </g>
     </g>
    </g>
    <g id="xtick_2">
     <g id="line2d_3">
      <path d="M 138.305875 303.477656 
L 138.305875 26.16 
" clip-path="url(#p51cfa5770a)" style="fill: none; stroke: #b0b0b0; stroke-opacity: 0.2; stroke-width: 0.8; stroke-linecap: square"/>
     </g>
     <g id="line2d_4">
      <g>
       <use xlink:href="#m7fa5925272" x="138.305875" y="303.477656" style="stroke: #000000; stroke-width: 0.8"/>
      </g>
     </g>
     <g id="text_2">
      <!-- 0.2 -->
      <g transform="translate(130.354313 318.075312) scale(0.1 -0.1)">
       <defs>
        <path id="DejaVuSans-15" d="M 1228 531 
L 3431 531 
L 3431 0 
L 469 0 
L 469 531 
Q 828 903 1448 1529 
Q 2069 2156 2228 2338 
Q 2531 2678 2651 2914 
Q 2772 3150 2772 3378 
Q 2772 3750 2511 3984 
Q 2250 4219 1831 4219 
Q 1534 4219 1204 4116 
Q 875 4013 500 3803 
L 500 4441 
Q 881 4594 1212 4672 
Q 1544 4750 1819 4750 
Q 2544 4750 2975 4387 
Q 3406 4025 3406 3419 
Q 3406 3131 3298 2873 
Q 3191 2616 2906 2266 
Q 2828 2175 2409 1742 
Q 1991 1309 1228 531 
z
" transform="scale(0.015625)"/>
       </defs>
       <use xlink:href="#DejaVuSans-13"/>
       <use xlink:href="#DejaVuSans-11" transform="translate(63.625 0)"/>
       <use xlink:href="#DejaVuSans-15" transform="translate(95.40625 0)"/>
      </g>
     </g>
    </g>
    <g id="xtick_3">
     <g id="line2d_5">
      <path d="M 228.649406 303.477656 
L 228.649406 26.16 
" clip-path="url(#p51cfa5770a)" style="fill: none; stroke: #b0b0b0; stroke-opacity: 0.2; stroke-width: 0.8; stroke-linecap: square"/>
     </g>
     <g id="line2d_6">
      <g>
       <use xlink:href="#m7fa5925272" x="228.649406" y="303.477656" style="stroke: #000000; stroke-width: 0.8"/>
      </g>
     </g>
     <g id="text_3">
      <!-- 0.4 -->
      <g transform="translate(220.697844 318.075312) scale(0.1 -0.1)">
       <defs>
        <path id="DejaVuSans-17" d="M 2419 4116 
L 825 1625 
L 2419 1625 
L 2419 4116 
z
M 2253 4666 
L 3047 4666 
L 3047 1625 
L 3713 1625 
L 3713 1100 
L 3047 1100 
L 3047 0 
L 2419 0 
L 2419 1100 
L 313 1100 
L 313 1709 
L 2253 4666 
z
" transform="scale(0.015625)"/>
       </defs>
       <use xlink:href="#DejaVuSans-13"/>
       <use xlink:href="#DejaVuSans-11" transform="translate(63.625 0)"/>
       <use xlink:href="#DejaVuSans-17" transform="translate(95.40625 0)"/>
      </g>
     </g>
    </g>
    <g id="xtick_4">
     <g id="line2d_7">
      <path d="M 318.992938 303.477656 
L 318.992938 26.16 
" clip-path="url(#p51cfa5770a)" style="fill: none; stroke: #b0b0b0; stroke-opacity: 0.2; stroke-width: 0.8; stroke-linecap: square"/>
     </g>
     <g id="line2d_8">
      <g>
       <use xlink:href="#m7fa5925272" x="318.992938" y="303.477656" style="stroke: #000000; stroke-width: 0.8"/>
      </g>
     </g>
     <g id="text_4">
      <!-- 0.6 -->
      <g transform="translate(311.041375 318.075312) scale(0.1 -0.1)">
       <defs>
        <path id="DejaVuSans-19" d="M 2113 2584 
Q 1688 2584 1439 2293 
Q 1191 2003 1191 1497 
Q 1191 994 1439 701 
Q 1688 409 2113 409 
Q 2538 409 2786 701 
Q 3034 994 3034 1497 
Q 3034 2003 2786 2293 
Q 2538 2584 2113 2584 
z
M 3366 4563 
L 3366 3988 
Q 3128 4100 2886 4159 
Q 2644 4219 2406 4219 
Q 1781 4219 1451 3797 
Q 1122 3375 1075 2522 
Q 1259 2794 1537 2939 
Q 1816 3084 2150 3084 
Q 2853 3084 3261 2657 
Q 3669 2231 3669 1497 
Q 3669 778 3244 343 
Q 2819 -91 2113 -91 
Q 1303 -91 875 529 
Q 447 1150 447 2328 
Q 447 3434 972 4092 
Q 1497 4750 2381 4750 
Q 2619 4750 2861 4703 
Q 3103 4656 3366 4563 
z
" transform="scale(0.015625)"/>
       </defs>
       <use xlink:href="#DejaVuSans-13"/>
       <use xlink:href="#DejaVuSans-11" transform="translate(63.625 0)"/>
       <use xlink:href="#DejaVuSans-19" transform="translate(95.40625 0)"/>
      </g>
     </g>
    </g>
    <g id="xtick_5">
     <g id="line2d_9">
      <path d="M 409.336469 303.477656 
L 409.336469 26.16 
" clip-path="url(#p51cfa5770a)" style="fill: none; stroke: #b0b0b0; stroke-opacity: 0.2; stroke-width: 0.8; stroke-linecap: square"/>
     </g>
     <g id="line2d_10">
      <g>
       <use xlink:href="#m7fa5925272" x="409.336469" y="303.477656" style="stroke: #000000; stroke-width: 0.8"/>
      </g>
     </g>
     <g id="text_5">
      <!-- 0.8 -->
      <g transform="translate(401.384906 318.075312) scale(0.1 -0.1)">
       <defs>
        <path id="DejaVuSans-1b" d="M 2034 2216 
Q 1584 2216 1326 1975 
Q 1069 1734 1069 1313 
Q 1069 891 1326 650 
Q 1584 409 2034 409 
Q 2484 409 2743 651 
Q 3003 894 3003 1313 
Q 3003 1734 2745 1975 
Q 2488 2216 2034 2216 
z
M 1403 2484 
Q 997 2584 770 2862 
Q 544 3141 544 3541 
Q 544 4100 942 4425 
Q 1341 4750 2034 4750 
Q 2731 4750 3128 4425 
Q 3525 4100 3525 3541 
Q 3525 3141 3298 2862 
Q 3072 2584 2669 2484 
Q 3125 2378 3379 2068 
Q 3634 1759 3634 1313 
Q 3634 634 3220 271 
Q 2806 -91 2034 -91 
Q 1263 -91 848 271 
Q 434 634 434 1313 
Q 434 1759 690 2068 
Q 947 2378 1403 2484 
z
M 1172 3481 
Q 1172 3119 1398 2916 
Q 1625 2713 2034 2713 
Q 2441 2713 2670 2916 
Q 2900 3119 2900 3481 
Q 2900 3844 2670 4047 
Q 2441 4250 2034 4250 
Q 1625 4250 1398 4047 
Q 1172 3844 1172 3481 
z
" transform="scale(0.015625)"/>
       </defs>
       <use xlink:href="#DejaVuSans-13"/>
       <use xlink:href="#DejaVuSans-11" transform="translate(63.625 0)"/>
       <use xlink:href="#DejaVuSans-1b" transform="translate(95.40625 0)"/>
      </g>
     </g>
    </g>
    <g id="xtick_6">
     <g id="line2d_11">
      <path d="M 499.68 303.477656 
L 499.68 26.16 
" clip-path="url(#p51cfa5770a)" style="fill: none; stroke: #b0b0b0; stroke-opacity: 0.2; stroke-width: 0.8; stroke-linecap: square"/>
     </g>
     <g id="line2d_12">
      <g>
       <use xlink:href="#m7fa5925272" x="499.68" y="303.477656" style="stroke: #000000; stroke-width: 0.8"/>
      </g>
     </g>
     <g id="text_6">
      <!-- 1.0 -->
      <g transform="translate(491.728437 318.075312) scale(0.1 -0.1)">
       <defs>
        <path id="DejaVuSans-14" d="M 794 531 
L 1825 531 
L 1825 4091 
L 703 3866 
L 703 4441 
L 1819 4666 
L 2450 4666 
L 2450 531 
L 3481 531 
L 3481 0 
L 794 0 
L 794 531 
z
" transform="scale(0.015625)"/>
       </defs>
       <use xlink:href="#DejaVuSans-14"/>
       <use xlink:href="#DejaVuSans-11" transform="translate(63.625 0)"/>
       <use xlink:href="#DejaVuSans-13" transform="translate(95.40625 0)"/>
      </g>
     </g>
    </g>
    <g id="text_7">
     <!-- Recall -->
     <g transform="translate(258.903203 332.076094) scale(0.1 -0.1)">
      <defs>
       <path id="DejaVuSans-35" d="M 2841 2188 
Q 3044 2119 3236 1894 
Q 3428 1669 3622 1275 
L 4263 0 
L 3584 0 
L 2988 1197 
Q 2756 1666 2539 1819 
Q 2322 1972 1947 1972 
L 1259 1972 
L 1259 0 
L 628 0 
L 628 4666 
L 2053 4666 
Q 2853 4666 3247 4331 
Q 3641 3997 3641 3322 
Q 3641 2881 3436 2590 
Q 3231 2300 2841 2188 
z
M 1259 4147 
L 1259 2491 
L 2053 2491 
Q 2509 2491 2742 2702 
Q 2975 2913 2975 3322 
Q 2975 3731 2742 3939 
Q 2509 4147 2053 4147 
L 1259 4147 
z
" transform="scale(0.015625)"/>
       <path id="DejaVuSans-48" d="M 3597 1894 
L 3597 1613 
L 953 1613 
Q 991 1019 1311 708 
Q 1631 397 2203 397 
Q 2534 397 2845 478 
Q 3156 559 3463 722 
L 3463 178 
Q 3153 47 2828 -22 
Q 2503 -91 2169 -91 
Q 1331 -91 842 396 
Q 353 884 353 1716 
Q 353 2575 817 3079 
Q 1281 3584 2069 3584 
Q 2775 3584 3186 3129 
Q 3597 2675 3597 1894 
z
M 3022 2063 
Q 3016 2534 2758 2815 
Q 2500 3097 2075 3097 
Q 1594 3097 1305 2825 
Q 1016 2553 972 2059 
L 3022 2063 
z
" transform="scale(0.015625)"/>
       <path id="DejaVuSans-46" d="M 3122 3366 
L 3122 2828 
Q 2878 2963 2633 3030 
Q 2388 3097 2138 3097 
Q 1578 3097 1268 2742 
Q 959 2388 959 1747 
Q 959 1106 1268 751 
Q 1578 397 2138 397 
Q 2388 397 2633 464 
Q 2878 531 3122 666 
L 3122 134 
Q 2881 22 2623 -34 
Q 2366 -91 2075 -91 
Q 1284 -91 818 406 
Q 353 903 353 1747 
Q 353 2603 823 3093 
Q 1294 3584 2113 3584 
Q 2378 3584 2631 3529 
Q 2884 3475 3122 3366 
z
" transform="scale(0.015625)"/>
       <path id="DejaVuSans-44" d="M 2194 1759 
Q 1497 1759 1228 1600 
Q 959 1441 959 1056 
Q 959 750 1161 570 
Q 1363 391 1709 391 
Q 2188 391 2477 730 
Q 2766 1069 2766 1631 
L 2766 1759 
L 2194 1759 
z
M 3341 1997 
L 3341 0 
L 2766 0 
L 2766 531 
Q 2569 213 2275 61 
Q 1981 -91 1556 -91 
Q 1019 -91 701 211 
Q 384 513 384 1019 
Q 384 1609 779 1909 
Q 1175 2209 1959 2209 
L 2766 2209 
L 2766 2266 
Q 2766 2663 2505 2880 
Q 2244 3097 1772 3097 
Q 1472 3097 1187 3025 
Q 903 2953 641 2809 
L 641 3341 
Q 956 3463 1253 3523 
Q 1550 3584 1831 3584 
Q 2591 3584 2966 3190 
Q 3341 2797 3341 1997 
z
" transform="scale(0.015625)"/>
       <path id="DejaVuSans-4f" d="M 603 4863 
L 1178 4863 
L 1178 0 
L 603 0 
L 603 4863 
z
" transform="scale(0.015625)"/>
      </defs>
      <use xlink:href="#DejaVuSans-35"/>
      <use xlink:href="#DejaVuSans-48" transform="translate(65 0)"/>
      <use xlink:href="#DejaVuSans-46" transform="translate(126.53125 0)"/>
      <use xlink:href="#DejaVuSans-44" transform="translate(181.515625 0)"/>
      <use xlink:href="#DejaVuSans-4f" transform="translate(242.796875 0)"/>
      <use xlink:href="#DejaVuSans-4f" transform="translate(270.578125 0)"/>
     </g>
    </g>
   </g>
   <g id="matplotlib.axis_2">
    <g id="ytick_1">
     <g id="line2d_13">
      <path d="M 47.962344 303.477656 
L 499.68 303.477656 
" clip-path="url(#p51cfa5770a)" style="fill: none; stroke: #b0b0b0; stroke-opacity: 0.2; stroke-width: 0.8; stroke-linecap: square"/>
     </g>
     <g id="line2d_14">
      <defs>
       <path id="m81c30d75ff" d="M 0 0 
L -3.5 0 
" style="stroke: #000000; stroke-width: 0.8"/>
      </defs>
      <g>
       <use xlink:href="#m81c30d75ff" x="47.962344" y="303.477656" style="stroke: #000000; stroke-width: 0.8"/>
      </g>
     </g>
     <g id="text_8">
      <!-- 0.0 -->
      <g transform="translate(25.059219 307.276484) scale(0.1 -0.1)">
       <use xlink:href="#DejaVuSans-13"/>
       <use xlink:href="#DejaVuSans-11" transform="translate(63.625 0)"/>
       <use xlink:href="#DejaVuSans-13" transform="translate(95.40625 0)"/>
      </g>
     </g>
    </g>
    <g id="ytick_2">
     <g id="line2d_15">
      <path d="M 47.962344 249.101645 
L 499.68 249.101645 
" clip-path="url(#p51cfa5770a)" style="fill: none; stroke: #b0b0b0; stroke-opacity: 0.2; stroke-width: 0.8; stroke-linecap: square"/>
     </g>
     <g id="line2d_16">
      <g>
       <use xlink:href="#m81c30d75ff" x="47.962344" y="249.101645" style="stroke: #000000; stroke-width: 0.8"/>
      </g>
     </g>
     <g id="text_9">
      <!-- 0.2 -->
      <g transform="translate(25.059219 252.900473) scale(0.1 -0.1)">
       <use xlink:href="#DejaVuSans-13"/>
       <use xlink:href="#DejaVuSans-11" transform="translate(63.625 0)"/>
       <use xlink:href="#DejaVuSans-15" transform="translate(95.40625 0)"/>
      </g>
     </g>
    </g>
    <g id="ytick_3">
     <g id="line2d_17">
      <path d="M 47.962344 194.725634 
L 499.68 194.725634 
" clip-path="url(#p51cfa5770a)" style="fill: none; stroke: #b0b0b0; stroke-opacity: 0.2; stroke-width: 0.8; stroke-linecap: square"/>
     </g>
     <g id="line2d_18">
      <g>
       <use xlink:href="#m81c30d75ff" x="47.962344" y="194.725634" style="stroke: #000000; stroke-width: 0.8"/>
      </g>
     </g>
     <g id="text_10">
      <!-- 0.4 -->
      <g transform="translate(25.059219 198.524462) scale(0.1 -0.1)">
       <use xlink:href="#DejaVuSans-13"/>
       <use xlink:href="#DejaVuSans-11" transform="translate(63.625 0)"/>
       <use xlink:href="#DejaVuSans-17" transform="translate(95.40625 0)"/>
      </g>
     </g>
    </g>
    <g id="ytick_4">
     <g id="line2d_19">
      <path d="M 47.962344 140.349623 
L 499.68 140.349623 
" clip-path="url(#p51cfa5770a)" style="fill: none; stroke: #b0b0b0; stroke-opacity: 0.2; stroke-width: 0.8; stroke-linecap: square"/>
     </g>
     <g id="line2d_20">
      <g>
       <use xlink:href="#m81c30d75ff" x="47.962344" y="140.349623" style="stroke: #000000; stroke-width: 0.8"/>
      </g>
     </g>
     <g id="text_11">
      <!-- 0.6 -->
      <g transform="translate(25.059219 144.148451) scale(0.1 -0.1)">
       <use xlink:href="#DejaVuSans-13"/>
       <use xlink:href="#DejaVuSans-11" transform="translate(63.625 0)"/>
       <use xlink:href="#DejaVuSans-19" transform="translate(95.40625 0)"/>
      </g>
     </g>
    </g>
    <g id="ytick_5">
     <g id="line2d_21">
      <path d="M 47.962344 85.973612 
L 499.68 85.973612 
" clip-path="url(#p51cfa5770a)" style="fill: none; stroke: #b0b0b0; stroke-opacity: 0.2; stroke-width: 0.8; stroke-linecap: square"/>
     </g>
     <g id="line2d_22">
      <g>
       <use xlink:href="#m81c30d75ff" x="47.962344" y="85.973612" style="stroke: #000000; stroke-width: 0.8"/>
      </g>
     </g>
     <g id="text_12">
      <!-- 0.8 -->
      <g transform="translate(25.059219 89.77244) scale(0.1 -0.1)">
       <use xlink:href="#DejaVuSans-13"/>
       <use xlink:href="#DejaVuSans-11" transform="translate(63.625 0)"/>
       <use xlink:href="#DejaVuSans-1b" transform="translate(95.40625 0)"/>
      </g>
     </g>
    </g>
    <g id="ytick_6">
     <g id="line2d_23">
      <path d="M 47.962344 31.597601 
L 499.68 31.597601 
" clip-path="url(#p51cfa5770a)" style="fill: none; stroke: #b0b0b0; stroke-opacity: 0.2; stroke-width: 0.8; stroke-linecap: square"/>
     </g>
     <g id="line2d_24">
      <g>
       <use xlink:href="#m81c30d75ff" x="47.962344" y="31.597601" style="stroke: #000000; stroke-width: 0.8"/>
      </g>
     </g>
     <g id="text_13">
      <!-- 1.0 -->
      <g transform="translate(25.059219 35.396429) scale(0.1 -0.1)">
       <use xlink:href="#DejaVuSans-14"/>
       <use xlink:href="#DejaVuSans-11" transform="translate(63.625 0)"/>
       <use xlink:href="#DejaVuSans-13" transform="translate(95.40625 0)"/>
      </g>
     </g>
    </g>
    <g id="text_14">
     <!-- Precision -->
     <g transform="translate(18.656875 187.128203) rotate(-90) scale(0.1 -0.1)">
      <defs>
       <path id="DejaVuSans-33" d="M 1259 4147 
L 1259 2394 
L 2053 2394 
Q 2494 2394 2734 2622 
Q 2975 2850 2975 3272 
Q 2975 3691 2734 3919 
Q 2494 4147 2053 4147 
L 1259 4147 
z
M 628 4666 
L 2053 4666 
Q 2838 4666 3239 4311 
Q 3641 3956 3641 3272 
Q 3641 2581 3239 2228 
Q 2838 1875 2053 1875 
L 1259 1875 
L 1259 0 
L 628 0 
L 628 4666 
z
" transform="scale(0.015625)"/>
       <path id="DejaVuSans-55" d="M 2631 2963 
Q 2534 3019 2420 3045 
Q 2306 3072 2169 3072 
Q 1681 3072 1420 2755 
Q 1159 2438 1159 1844 
L 1159 0 
L 581 0 
L 581 3500 
L 1159 3500 
L 1159 2956 
Q 1341 3275 1631 3429 
Q 1922 3584 2338 3584 
Q 2397 3584 2469 3576 
Q 2541 3569 2628 3553 
L 2631 2963 
z
" transform="scale(0.015625)"/>
       <path id="DejaVuSans-4c" d="M 603 3500 
L 1178 3500 
L 1178 0 
L 603 0 
L 603 3500 
z
M 603 4863 
L 1178 4863 
L 1178 4134 
L 603 4134 
L 603 4863 
z
" transform="scale(0.015625)"/>
       <path id="DejaVuSans-56" d="M 2834 3397 
L 2834 2853 
Q 2591 2978 2328 3040 
Q 2066 3103 1784 3103 
Q 1356 3103 1142 2972 
Q 928 2841 928 2578 
Q 928 2378 1081 2264 
Q 1234 2150 1697 2047 
L 1894 2003 
Q 2506 1872 2764 1633 
Q 3022 1394 3022 966 
Q 3022 478 2636 193 
Q 2250 -91 1575 -91 
Q 1294 -91 989 -36 
Q 684 19 347 128 
L 347 722 
Q 666 556 975 473 
Q 1284 391 1588 391 
Q 1994 391 2212 530 
Q 2431 669 2431 922 
Q 2431 1156 2273 1281 
Q 2116 1406 1581 1522 
L 1381 1569 
Q 847 1681 609 1914 
Q 372 2147 372 2553 
Q 372 3047 722 3315 
Q 1072 3584 1716 3584 
Q 2034 3584 2315 3537 
Q 2597 3491 2834 3397 
z
" transform="scale(0.015625)"/>
       <path id="DejaVuSans-52" d="M 1959 3097 
Q 1497 3097 1228 2736 
Q 959 2375 959 1747 
Q 959 1119 1226 758 
Q 1494 397 1959 397 
Q 2419 397 2687 759 
Q 2956 1122 2956 1747 
Q 2956 2369 2687 2733 
Q 2419 3097 1959 3097 
z
M 1959 3584 
Q 2709 3584 3137 3096 
Q 3566 2609 3566 1747 
Q 3566 888 3137 398 
Q 2709 -91 1959 -91 
Q 1206 -91 779 398 
Q 353 888 353 1747 
Q 353 2609 779 3096 
Q 1206 3584 1959 3584 
z
" transform="scale(0.015625)"/>
       <path id="DejaVuSans-51" d="M 3513 2113 
L 3513 0 
L 2938 0 
L 2938 2094 
Q 2938 2591 2744 2837 
Q 2550 3084 2163 3084 
Q 1697 3084 1428 2787 
Q 1159 2491 1159 1978 
L 1159 0 
L 581 0 
L 581 3500 
L 1159 3500 
L 1159 2956 
Q 1366 3272 1645 3428 
Q 1925 3584 2291 3584 
Q 2894 3584 3203 3211 
Q 3513 2838 3513 2113 
z
" transform="scale(0.015625)"/>
      </defs>
      <use xlink:href="#DejaVuSans-33"/>
      <use xlink:href="#DejaVuSans-55" transform="translate(58.546875 0)"/>
      <use xlink:href="#DejaVuSans-48" transform="translate(97.453125 0)"/>
      <use xlink:href="#DejaVuSans-46" transform="translate(158.984375 0)"/>
      <use xlink:href="#DejaVuSans-4c" transform="translate(213.96875 0)"/>
      <use xlink:href="#DejaVuSans-56" transform="translate(241.75 0)"/>
      <use xlink:href="#DejaVuSans-4c" transform="translate(293.84375 0)"/>
      <use xlink:href="#DejaVuSans-52" transform="translate(321.625 0)"/>
      <use xlink:href="#DejaVuSans-51" transform="translate(382.8125 0)"/>
     </g>
    </g>
   </g>
   <g id="line2d_25">
    <path d="M 499.68 302.366212 
L 499.68 302.270876 
L 497.127923 302.25655 
L 497.127923 302.166565 
L 497.127923 301.21686 
L 495.851884 301.223229 
L 495.851884 301.112134 
L 495.851884 300.51969 
L 494.575846 300.528026 
L 494.575846 300.416929 
L 494.575846 300.37956 
L 493.299807 300.388311 
L 493.299807 300.277233 
L 493.299807 299.302983 
L 492.023769 299.314762 
L 492.023769 299.203817 
L 492.023769 299.07146 
L 490.74773 299.083917 
L 490.74773 298.972935 
L 490.74773 298.294009 
L 489.471691 298.308663 
L 489.471691 298.197839 
L 489.471691 296.805043 
L 485.643576 296.813263 
L 485.643576 296.750767 
L 485.643576 296.622194 
L 483.091498 296.570258 
L 483.091498 296.550129 
L 483.091498 295.646666 
L 481.81546 295.668971 
L 481.81546 295.557915 
L 481.81546 290.771234 
L 480.539421 290.806865 
L 480.539421 290.696164 
L 480.539421 289.937574 
L 479.263383 289.975532 
L 479.263383 289.865531 
L 479.263383 288.280789 
L 476.711306 288.262517 
L 476.711306 288.25491 
L 476.711306 288.083032 
L 475.435267 288.126263 
L 475.435267 288.016815 
L 475.435267 286.263553 
L 474.159228 286.311694 
L 474.159228 286.200651 
L 474.159228 285.665193 
L 472.88319 285.715039 
L 472.88319 285.606346 
L 472.88319 282.640819 
L 471.607151 282.69861 
L 471.607151 282.588006 
L 471.607151 279.798701 
L 470.331113 279.863828 
L 470.331113 279.75802 
L 470.331113 273.146582 
L 469.055074 273.228021 
L 469.055074 273.125688 
L 469.055074 262.207915 
L 467.779036 262.31404 
L 467.779036 262.219105 
L 467.779036 259.907984 
L 466.502997 260.019246 
L 466.502997 259.913094 
L 466.502997 254.533277 
L 465.226958 254.655702 
L 465.226958 254.548224 
L 465.226958 253.531152 
L 463.95092 253.655904 
L 463.95092 253.571745 
L 463.95092 240.883802 
L 462.674881 241.031707 
L 462.674881 240.943319 
L 462.674881 226.641988 
L 461.398843 226.81174 
L 461.398843 226.744958 
L 461.398843 223.831058 
L 460.122804 224.005025 
L 460.122804 223.933039 
L 460.122804 222.985211 
L 458.846766 223.160796 
L 458.846766 223.087043 
L 458.846766 221.198166 
L 456.294688 221.555229 
L 456.294688 221.478017 
L 456.294688 219.661069 
L 455.01865 219.842422 
L 455.01865 219.761693 
L 455.01865 219.599767 
L 452.466573 219.964112 
L 452.466573 219.88311 
L 452.466573 219.311663 
L 451.190534 219.495156 
L 451.190534 219.412982 
L 451.190534 218.916537 
L 447.362418 219.388272 
L 447.362418 218.970747 
L 446.08638 219.157003 
L 446.08638 219.073102 
L 446.08638 218.481086 
L 444.810341 218.668532 
L 444.810341 218.583382 
L 444.810341 217.635324 
L 443.534303 217.824387 
L 443.534303 217.737252 
L 443.534303 217.64994 
L 442.258264 217.839596 
L 442.258264 217.75221 
L 442.258264 216.689498 
L 440.982225 216.880907 
L 440.982225 216.791262 
L 440.982225 214.298682 
L 439.706187 214.493459 
L 439.706187 214.398492 
L 439.706187 212.056871 
L 438.430148 212.254743 
L 438.430148 212.154608 
L 438.430148 210.83256 
L 437.15411 211.032376 
L 437.15411 210.9292 
L 437.15411 210.409848 
L 435.878071 210.610761 
L 435.878071 210.506299 
L 435.878071 209.768431 
L 434.602033 209.970668 
L 434.602033 209.86441 
L 434.602033 208.788396 
L 432.049955 209.196669 
L 432.049955 209.087925 
L 432.049955 208.208859 
L 429.497878 208.510207 
L 429.497878 207.727201 
L 428.22184 207.934901 
L 428.22184 207.139658 
L 426.945801 207.348637 
L 426.945801 207.004088 
L 423.117685 207.635047 
L 423.117685 206.940535 
L 421.841647 207.152558 
L 421.841647 193.448849 
L 420.565608 193.67271 
L 420.565608 189.248914 
L 419.28957 189.476077 
L 419.28957 188.815198 
L 418.013531 189.04338 
L 418.013531 185.798229 
L 416.737492 186.028724 
L 416.737492 180.898349 
L 415.461454 181.131631 
L 415.461454 177.184985 
L 414.185415 177.420183 
L 414.185415 177.011569 
L 411.633338 177.48446 
L 411.633338 174.977133 
L 410.3573 175.215305 
L 410.3573 174.357363 
L 409.081261 174.596491 
L 409.081261 173.067393 
L 407.805222 173.307579 
L 407.805222 172.864069 
L 406.529184 173.105138 
L 406.529184 171.756457 
L 405.253145 171.998528 
L 405.253145 171.313741 
L 403.977107 171.556725 
L 403.977107 169.221841 
L 402.701068 169.465856 
L 402.701068 164.283079 
L 401.42503 164.527886 
L 401.42503 162.972478 
L 400.148991 163.218039 
L 400.148991 162.955381 
L 398.872952 163.20183 
L 398.872952 159.970909 
L 397.596914 160.217781 
L 397.596914 157.694613 
L 396.320875 157.941862 
L 396.320875 153.228152 
L 395.044837 153.474867 
L 395.044837 151.937953 
L 393.768798 152.185059 
L 393.768798 151.873757 
L 392.49276 152.121749 
L 392.49276 150.225851 
L 391.216721 150.474027 
L 391.216721 148.856652 
L 389.940682 149.105083 
L 389.940682 148.448178 
L 388.664644 148.697326 
L 388.664644 143.230471 
L 387.388605 143.477447 
L 387.388605 142.048874 
L 386.112567 142.295968 
L 386.112567 141.571556 
L 383.560489 142.068052 
L 383.560489 141.702872 
L 382.284451 141.952544 
L 382.284451 140.846208 
L 379.732374 141.347348 
L 379.732374 140.974635 
L 378.456335 141.226656 
L 378.456335 140.097298 
L 377.180297 140.349623 
L 377.180297 139.969371 
L 375.904258 140.222576 
L 375.904258 139.070188 
L 372.076142 139.834211 
L 372.076142 137.872059 
L 369.524065 138.384225 
L 369.524065 135.55174 
L 366.971988 136.063829 
L 366.971988 135.235048 
L 365.695949 135.492213 
L 365.695949 135.074339 
L 364.419911 135.332385 
L 364.419911 134.912022 
L 363.143872 135.170955 
L 363.143872 133.895905 
L 361.867834 134.154888 
L 361.867834 131.543225 
L 360.591795 131.800817 
L 360.591795 129.559605 
L 359.315757 129.81605 
L 359.315757 127.044855 
L 355.487641 127.812527 
L 355.487641 124.452811 
L 352.935564 124.963005 
L 352.935564 123.479503 
L 351.659525 123.734731 
L 351.659525 121.20314 
L 350.383486 121.456263 
L 350.383486 120.940622 
L 349.107448 121.194437 
L 349.107448 117.495937 
L 347.831409 117.745642 
L 347.831409 115.560559 
L 346.555371 115.808238 
L 346.555371 115.253003 
L 344.003294 115.750952 
L 344.003294 113.489184 
L 340.175178 114.235916 
L 340.175178 113.078474 
L 337.623101 113.579895 
L 337.623101 110.612742 
L 336.347062 110.860438 
L 336.347062 109.031794 
L 335.071024 109.277617 
L 335.071024 106.779867 
L 332.518946 107.266484 
L 332.518946 104.039326 
L 331.242908 104.278408 
L 331.242908 102.286415 
L 315.930445 105.231783 
L 308.274213 106.798467 
L 308.274213 106.098541 
L 294.237789 109.133765 
L 292.961751 109.422004 
L 292.961751 108.697915 
L 285.305519 110.463571 
L 285.305519 108.227887 
L 282.753442 108.824232 
L 282.753442 99.290186 
L 281.477403 99.567615 
L 281.477403 98.728479 
L 280.201365 99.005879 
L 280.201365 97.301948 
L 278.925326 97.576861 
L 278.925326 96.711732 
L 277.649288 96.986475 
L 277.649288 96.111512 
L 276.373249 96.38604 
L 276.373249 91.884048 
L 275.09721 92.147308 
L 275.09721 89.342038 
L 272.545133 89.857613 
L 272.545133 88.899676 
L 263.612863 90.756687 
L 263.612863 89.767287 
L 261.060786 90.313482 
L 261.060786 88.292968 
L 258.508709 88.835507 
L 258.508709 82.491405 
L 257.23267 82.743354 
L 257.23267 81.645173 
L 255.956632 81.895411 
L 255.956632 79.657207 
L 253.404555 80.147611 
L 253.404555 79.002329 
L 252.128516 79.246683 
L 252.128516 74.526031 
L 249.576439 74.982716 
L 249.576439 71.277393 
L 247.024362 71.711052 
L 247.024362 70.437609 
L 244.472285 70.869165 
L 244.472285 68.255586 
L 239.36813 69.098298 
L 239.36813 67.743504 
L 232.987937 68.819275 
L 232.987937 67.414135 
L 231.711899 67.629898 
L 231.711899 66.200517 
L 225.331706 67.281858 
L 225.331706 65.79635 
L 224.055667 66.012798 
L 224.055667 64.500283 
L 222.779629 64.711198 
L 222.779629 63.170769 
L 221.50359 63.375789 
L 221.50359 61.806496 
L 218.951513 62.206614 
L 218.951513 60.59814 
L 217.675474 60.792775 
L 217.675474 59.153012 
L 216.399436 59.340464 
L 216.399436 57.668291 
L 215.123397 57.848089 
L 215.123397 54.412711 
L 212.57132 54.736329 
L 212.57132 52.959605 
L 210.019243 53.2692 
L 210.019243 51.442861 
L 208.743204 51.588782 
L 208.743204 47.829246 
L 207.467166 47.951289 
L 207.467166 44.050123 
L 206.191127 44.145911 
L 206.191127 42.135588 
L 203.63905 42.30154 
L 203.63905 40.228714 
L 195.982819 40.66027 
L 195.982819 38.45172 
L 187.050549 38.880103 
L 187.050549 36.496341 
L 181.946394 36.679471 
L 181.946394 34.162507 
L 174.290163 34.316402 
L 174.290163 31.597601 
L 47.962344 31.597601 
L 47.962344 31.597601 
" clip-path="url(#p51cfa5770a)" style="fill: none; stroke: #1f77b4; stroke-width: 2; stroke-linecap: square"/>
   </g>
   <g id="line2d_26">
    <path d="M 499.68 302.366212 
L 499.68 295.335056 
L 497.127923 295.351497 
L 497.127923 295.269252 
L 497.127923 295.135451 
L 495.851884 295.158425 
L 495.851884 295.047453 
L 495.851884 292.247967 
L 494.575846 292.278643 
L 494.575846 292.16817 
L 494.575846 291.757245 
L 493.299807 291.789292 
L 493.299807 291.678833 
L 493.299807 291.12269 
L 492.023769 291.156487 
L 492.023769 291.046404 
L 492.023769 290.076203 
L 490.74773 290.11282 
L 490.74773 290.002099 
L 490.74773 287.669617 
L 489.471691 287.712532 
L 489.471691 287.603458 
L 489.471691 282.156147 
L 488.195653 282.21295 
L 488.195653 282.10636 
L 488.195653 282.096617 
L 486.919614 282.15373 
L 486.919614 282.046231 
L 486.919614 281.12957 
L 485.643576 281.18921 
L 485.643576 281.082157 
L 485.643576 278.529861 
L 484.367537 278.595939 
L 484.367537 278.488949 
L 484.367537 277.805934 
L 483.091498 277.873928 
L 483.091498 277.767424 
L 483.091498 274.550636 
L 481.81546 274.626464 
L 481.81546 274.518001 
L 481.81546 239.149738 
L 480.539421 239.294273 
L 480.539421 239.204756 
L 480.539421 219.917059 
L 479.263383 220.087948 
L 479.263383 220.012208 
L 479.263383 219.554863 
L 477.987344 219.72667 
L 477.987344 219.650045 
L 477.987344 105.586558 
L 476.711306 105.746707 
L 476.711306 90.039108 
L 475.435267 90.175974 
L 475.435267 80.242807 
L 474.159228 80.362328 
L 474.159228 75.888838 
L 472.88319 76.000123 
L 472.88319 70.737146 
L 471.607151 70.838021 
L 471.607151 69.025245 
L 470.331113 69.122713 
L 470.331113 60.255229 
L 467.779036 60.410977 
L 467.779036 57.739914 
L 466.502997 57.811931 
L 466.502997 56.450903 
L 465.226958 56.519939 
L 465.226958 55.832035 
L 463.95092 55.899729 
L 463.95092 51.679651 
L 458.846766 51.910479 
L 458.846766 51.185501 
L 457.570727 51.242114 
L 457.570727 50.510996 
L 453.742611 50.676903 
L 453.742611 47.685178 
L 451.190534 47.780938 
L 451.190534 47.017664 
L 446.08638 47.204009 
L 446.08638 46.427422 
L 439.706187 46.655573 
L 433.325994 44.462588 
L 430.773917 44.54427 
L 425.669763 43.876055 
L 423.117685 43.955785 
L 423.117685 43.110437 
L 407.805222 43.578756 
L 407.805222 41.804702 
L 402.701068 41.945977 
L 402.701068 41.037881 
L 395.044837 41.238738 
L 395.044837 40.305503 
L 391.216721 40.399473 
L 389.940682 39.478182 
L 378.456335 39.74382 
L 373.352181 38.861572 
L 370.800104 38.917449 
L 370.800104 37.895981 
L 365.695949 37.994779 
L 365.695949 35.8961 
L 364.419911 35.913158 
L 364.419911 34.847164 
L 344.003294 35.06841 
L 344.003294 33.921362 
L 340.175178 33.951541 
L 338.899139 32.78485 
L 317.206483 32.880054 
L 312.102329 31.597601 
L 47.962344 31.597601 
L 47.962344 31.597601 
" clip-path="url(#p51cfa5770a)" style="fill: none; stroke: #ff7f0e; stroke-width: 2; stroke-linecap: square"/>
   </g>
   <g id="line2d_27">
    <path d="M 47.962344 302.366212 
L 499.68 302.366212 
" clip-path="url(#p51cfa5770a)" style="fill: none; stroke-dasharray: 5.55,2.4; stroke-dashoffset: 0; stroke: #737373; stroke-width: 1.5"/>
   </g>
   <g id="patch_3">
    <path d="M 47.962344 303.477656 
L 47.962344 26.16 
" style="fill: none; stroke: #000000; stroke-width: 0.8; stroke-linejoin: miter; stroke-linecap: square"/>
   </g>
   <g id="patch_4">
    <path d="M 499.68 303.477656 
L 499.68 26.16 
" style="fill: none; stroke: #000000; stroke-width: 0.8; stroke-linejoin: miter; stroke-linecap: square"/>
   </g>
   <g id="patch_5">
    <path d="M 47.962344 303.477656 
L 499.68 303.477656 
" style="fill: none; stroke: #000000; stroke-width: 0.8; stroke-linejoin: miter; stroke-linecap: square"/>
   </g>
   <g id="patch_6">
    <path d="M 47.962344 26.16 
L 499.68 26.16 
" style="fill: none; stroke: #000000; stroke-width: 0.8; stroke-linejoin: miter; stroke-linecap: square"/>
   </g>
   <g id="text_15">
    <!-- Holdout precision-recall curve -->
    <g transform="translate(184.142734 20.16) scale(0.12 -0.12)">
     <defs>
      <path id="DejaVuSans-2b" d="M 628 4666 
L 1259 4666 
L 1259 2753 
L 3553 2753 
L 3553 4666 
L 4184 4666 
L 4184 0 
L 3553 0 
L 3553 2222 
L 1259 2222 
L 1259 0 
L 628 0 
L 628 4666 
z
" transform="scale(0.015625)"/>
      <path id="DejaVuSans-47" d="M 2906 2969 
L 2906 4863 
L 3481 4863 
L 3481 0 
L 2906 0 
L 2906 525 
Q 2725 213 2448 61 
Q 2172 -91 1784 -91 
Q 1150 -91 751 415 
Q 353 922 353 1747 
Q 353 2572 751 3078 
Q 1150 3584 1784 3584 
Q 2172 3584 2448 3432 
Q 2725 3281 2906 2969 
z
M 947 1747 
Q 947 1113 1208 752 
Q 1469 391 1925 391 
Q 2381 391 2643 752 
Q 2906 1113 2906 1747 
Q 2906 2381 2643 2742 
Q 2381 3103 1925 3103 
Q 1469 3103 1208 2742 
Q 947 2381 947 1747 
z
" transform="scale(0.015625)"/>
      <path id="DejaVuSans-58" d="M 544 1381 
L 544 3500 
L 1119 3500 
L 1119 1403 
Q 1119 906 1312 657 
Q 1506 409 1894 409 
Q 2359 409 2629 706 
Q 2900 1003 2900 1516 
L 2900 3500 
L 3475 3500 
L 3475 0 
L 2900 0 
L 2900 538 
Q 2691 219 2414 64 
Q 2138 -91 1772 -91 
Q 1169 -91 856 284 
Q 544 659 544 1381 
z
M 1991 3584 
L 1991 3584 
z
" transform="scale(0.015625)"/>
      <path id="DejaVuSans-57" d="M 1172 4494 
L 1172 3500 
L 2356 3500 
L 2356 3053 
L 1172 3053 
L 1172 1153 
Q 1172 725 1289 603 
Q 1406 481 1766 481 
L 2356 481 
L 2356 0 
L 1766 0 
Q 1100 0 847 248 
Q 594 497 594 1153 
L 594 3053 
L 172 3053 
L 172 3500 
L 594 3500 
L 594 4494 
L 1172 4494 
z
" transform="scale(0.015625)"/>
      <path id="DejaVuSans-3" transform="scale(0.015625)"/>
      <path id="DejaVuSans-53" d="M 1159 525 
L 1159 -1331 
L 581 -1331 
L 581 3500 
L 1159 3500 
L 1159 2969 
Q 1341 3281 1617 3432 
Q 1894 3584 2278 3584 
Q 2916 3584 3314 3078 
Q 3713 2572 3713 1747 
Q 3713 922 3314 415 
Q 2916 -91 2278 -91 
Q 1894 -91 1617 61 
Q 1341 213 1159 525 
z
M 3116 1747 
Q 3116 2381 2855 2742 
Q 2594 3103 2138 3103 
Q 1681 3103 1420 2742 
Q 1159 2381 1159 1747 
Q 1159 1113 1420 752 
Q 1681 391 2138 391 
Q 2594 391 2855 752 
Q 3116 1113 3116 1747 
z
" transform="scale(0.015625)"/>
      <path id="DejaVuSans-10" d="M 313 2009 
L 1997 2009 
L 1997 1497 
L 313 1497 
L 313 2009 
z
" transform="scale(0.015625)"/>
      <path id="DejaVuSans-59" d="M 191 3500 
L 800 3500 
L 1894 563 
L 2988 3500 
L 3597 3500 
L 2284 0 
L 1503 0 
L 191 3500 
z
" transform="scale(0.015625)"/>
     </defs>
     <use xlink:href="#DejaVuSans-2b"/>
     <use xlink:href="#DejaVuSans-52" transform="translate(75.203125 0)"/>
     <use xlink:href="#DejaVuSans-4f" transform="translate(136.390625 0)"/>
     <use xlink:href="#DejaVuSans-47" transform="translate(164.171875 0)"/>
     <use xlink:href="#DejaVuSans-52" transform="translate(227.65625 0)"/>
     <use xlink:href="#DejaVuSans-58" transform="translate(288.84375 0)"/>
     <use xlink:href="#DejaVuSans-57" transform="translate(352.21875 0)"/>
     <use xlink:href="#DejaVuSans-3" transform="translate(391.421875 0)"/>
     <use xlink:href="#DejaVuSans-53" transform="translate(423.203125 0)"/>
     <use xlink:href="#DejaVuSans-55" transform="translate(486.6875 0)"/>
     <use xlink:href="#DejaVuSans-48" transform="translate(525.59375 0)"/>
     <use xlink:href="#DejaVuSans-46" transform="translate(587.125 0)"/>
     <use xlink:href="#DejaVuSans-4c" transform="translate(642.109375 0)"/>
     <use xlink:href="#DejaVuSans-56" transform="translate(669.890625 0)"/>
     <use xlink:href="#DejaVuSans-4c" transform="translate(721.984375 0)"/>
     <use xlink:href="#DejaVuSans-52" transform="translate(749.765625 0)"/>
     <use xlink:href="#DejaVuSans-51" transform="translate(810.953125 0)"/>
     <use xlink:href="#DejaVuSans-10" transform="translate(874.328125 0)"/>
     <use xlink:href="#DejaVuSans-55" transform="translate(910.40625 0)"/>
     <use xlink:href="#DejaVuSans-48" transform="translate(949.3125 0)"/>
     <use xlink:href="#DejaVuSans-46" transform="translate(1010.84375 0)"/>
     <use xlink:href="#DejaVuSans-44" transform="translate(1065.828125 0)"/>
     <use xlink:href="#DejaVuSans-4f" transform="translate(1127.109375 0)"/>
     <use xlink:href="#DejaVuSans-4f" transform="translate(1154.890625 0)"/>
     <use xlink:href="#DejaVuSans-3" transform="translate(1182.671875 0)"/>
     <use xlink:href="#DejaVuSans-46" transform="translate(1214.453125 0)"/>
     <use xlink:href="#DejaVuSans-58" transform="translate(1269.4375 0)"/>
     <use xlink:href="#DejaVuSans-55" transform="translate(1332.8125 0)"/>
     <use xlink:href="#DejaVuSans-59" transform="translate(1373.921875 0)"/>
     <use xlink:href="#DejaVuSans-48" transform="translate(1433.109375 0)"/>
    </g>
   </g>
   <g id="legend_1">
    <g id="patch_7">
     <path d="M 54.962344 298.477656 
L 196.785781 298.477656 
Q 198.785781 298.477656 198.785781 296.477656 
L 198.785781 252.475312 
Q 198.785781 250.475312 196.785781 250.475312 
L 54.962344 250.475312 
Q 52.962344 250.475312 52.962344 252.475312 
L 52.962344 296.477656 
Q 52.962344 298.477656 54.962344 298.477656 
z
" style="fill: #ffffff; opacity: 0.8; stroke: #cccccc; stroke-linejoin: miter"/>
    </g>
    <g id="line2d_28">
     <path d="M 56.962344 258.57375 
L 66.962344 258.57375 
L 76.962344 258.57375 
" style="fill: none; stroke: #1f77b4; stroke-width: 2; stroke-linecap: square"/>
    </g>
    <g id="text_16">
     <!-- Logistic Regression -->
     <g transform="translate(84.962344 262.07375) scale(0.1 -0.1)">
      <defs>
       <path id="DejaVuSans-2f" d="M 628 4666 
L 1259 4666 
L 1259 531 
L 3531 531 
L 3531 0 
L 628 0 
L 628 4666 
z
" transform="scale(0.015625)"/>
       <path id="DejaVuSans-4a" d="M 2906 1791 
Q 2906 2416 2648 2759 
Q 2391 3103 1925 3103 
Q 1463 3103 1205 2759 
Q 947 2416 947 1791 
Q 947 1169 1205 825 
Q 1463 481 1925 481 
Q 2391 481 2648 825 
Q 2906 1169 2906 1791 
z
M 3481 434 
Q 3481 -459 3084 -895 
Q 2688 -1331 1869 -1331 
Q 1566 -1331 1297 -1286 
Q 1028 -1241 775 -1147 
L 775 -588 
Q 1028 -725 1275 -790 
Q 1522 -856 1778 -856 
Q 2344 -856 2625 -561 
Q 2906 -266 2906 331 
L 2906 616 
Q 2728 306 2450 153 
Q 2172 0 1784 0 
Q 1141 0 747 490 
Q 353 981 353 1791 
Q 353 2603 747 3093 
Q 1141 3584 1784 3584 
Q 2172 3584 2450 3431 
Q 2728 3278 2906 2969 
L 2906 3500 
L 3481 3500 
L 3481 434 
z
" transform="scale(0.015625)"/>
      </defs>
      <use xlink:href="#DejaVuSans-2f"/>
      <use xlink:href="#DejaVuSans-52" transform="translate(53.96875 0)"/>
      <use xlink:href="#DejaVuSans-4a" transform="translate(115.15625 0)"/>
      <use xlink:href="#DejaVuSans-4c" transform="translate(178.640625 0)"/>
      <use xlink:href="#DejaVuSans-56" transform="translate(206.421875 0)"/>
      <use xlink:href="#DejaVuSans-57" transform="translate(258.515625 0)"/>
      <use xlink:href="#DejaVuSans-4c" transform="translate(297.71875 0)"/>
      <use xlink:href="#DejaVuSans-46" transform="translate(325.5 0)"/>
      <use xlink:href="#DejaVuSans-3" transform="translate(380.484375 0)"/>
      <use xlink:href="#DejaVuSans-35" transform="translate(412.265625 0)"/>
      <use xlink:href="#DejaVuSans-48" transform="translate(477.265625 0)"/>
      <use xlink:href="#DejaVuSans-4a" transform="translate(538.796875 0)"/>
      <use xlink:href="#DejaVuSans-55" transform="translate(602.28125 0)"/>
      <use xlink:href="#DejaVuSans-48" transform="translate(641.1875 0)"/>
      <use xlink:href="#DejaVuSans-56" transform="translate(702.71875 0)"/>
      <use xlink:href="#DejaVuSans-56" transform="translate(754.8125 0)"/>
      <use xlink:href="#DejaVuSans-4c" transform="translate(806.90625 0)"/>
      <use xlink:href="#DejaVuSans-52" transform="translate(834.6875 0)"/>
      <use xlink:href="#DejaVuSans-51" transform="translate(895.875 0)"/>
     </g>
    </g>
    <g id="line2d_29">
     <path d="M 56.962344 273.574531 
L 66.962344 273.574531 
L 76.962344 273.574531 
" style="fill: none; stroke: #ff7f0e; stroke-width: 2; stroke-linecap: square"/>
    </g>
    <g id="text_17">
     <!-- HistGradient Boosting -->
     <g transform="translate(84.962344 277.074531) scale(0.1 -0.1)">
      <defs>
       <path id="DejaVuSans-2a" d="M 3809 666 
L 3809 1919 
L 2778 1919 
L 2778 2438 
L 4434 2438 
L 4434 434 
Q 4069 175 3628 42 
Q 3188 -91 2688 -91 
Q 1594 -91 976 548 
Q 359 1188 359 2328 
Q 359 3472 976 4111 
Q 1594 4750 2688 4750 
Q 3144 4750 3555 4637 
Q 3966 4525 4313 4306 
L 4313 3634 
Q 3963 3931 3569 4081 
Q 3175 4231 2741 4231 
Q 1884 4231 1454 3753 
Q 1025 3275 1025 2328 
Q 1025 1384 1454 906 
Q 1884 428 2741 428 
Q 3075 428 3337 486 
Q 3600 544 3809 666 
z
" transform="scale(0.015625)"/>
       <path id="DejaVuSans-25" d="M 1259 2228 
L 1259 519 
L 2272 519 
Q 2781 519 3026 730 
Q 3272 941 3272 1375 
Q 3272 1813 3026 2020 
Q 2781 2228 2272 2228 
L 1259 2228 
z
M 1259 4147 
L 1259 2741 
L 2194 2741 
Q 2656 2741 2882 2914 
Q 3109 3088 3109 3444 
Q 3109 3797 2882 3972 
Q 2656 4147 2194 4147 
L 1259 4147 
z
M 628 4666 
L 2241 4666 
Q 2963 4666 3353 4366 
Q 3744 4066 3744 3513 
Q 3744 3084 3544 2831 
Q 3344 2578 2956 2516 
Q 3422 2416 3680 2098 
Q 3938 1781 3938 1306 
Q 3938 681 3513 340 
Q 3088 0 2303 0 
L 628 0 
L 628 4666 
z
" transform="scale(0.015625)"/>
      </defs>
      <use xlink:href="#DejaVuSans-2b"/>
      <use xlink:href="#DejaVuSans-4c" transform="translate(75.203125 0)"/>
      <use xlink:href="#DejaVuSans-56" transform="translate(102.984375 0)"/>
      <use xlink:href="#DejaVuSans-57" transform="translate(155.078125 0)"/>
      <use xlink:href="#DejaVuSans-2a" transform="translate(194.28125 0)"/>
      <use xlink:href="#DejaVuSans-55" transform="translate(271.765625 0)"/>
      <use xlink:href="#DejaVuSans-44" transform="translate(312.875 0)"/>
      <use xlink:href="#DejaVuSans-47" transform="translate(374.15625 0)"/>
      <use xlink:href="#DejaVuSans-4c" transform="translate(437.640625 0)"/>
      <use xlink:href="#DejaVuSans-48" transform="translate(465.421875 0)"/>
      <use xlink:href="#DejaVuSans-51" transform="translate(526.953125 0)"/>
      <use xlink:href="#DejaVuSans-57" transform="translate(590.328125 0)"/>
      <use xlink:href="#DejaVuSans-3" transform="translate(629.53125 0)"/>
      <use xlink:href="#DejaVuSans-25" transform="translate(661.3125 0)"/>
      <use xlink:href="#DejaVuSans-52" transform="translate(729.921875 0)"/>
      <use xlink:href="#DejaVuSans-52" transform="translate(791.109375 0)"/>
      <use xlink:href="#DejaVuSans-56" transform="translate(852.296875 0)"/>
      <use xlink:href="#DejaVuSans-57" transform="translate(904.390625 0)"/>
      <use xlink:href="#DejaVuSans-4c" transform="translate(943.59375 0)"/>
      <use xlink:href="#DejaVuSans-51" transform="translate(971.375 0)"/>
      <use xlink:href="#DejaVuSans-4a" transform="translate(1034.75 0)"/>
     </g>
    </g>
    <g id="line2d_30">
     <path d="M 56.962344 288.575312 
L 66.962344 288.575312 
L 76.962344 288.575312 
" style="fill: none; stroke-dasharray: 5.55,2.4; stroke-dashoffset: 0; stroke: #737373; stroke-width: 1.5"/>
    </g>
    <g id="text_18">
     <!-- Holdout base rate -->
     <g transform="translate(84.962344 292.075312) scale(0.1 -0.1)">
      <defs>
       <path id="DejaVuSans-45" d="M 3116 1747 
Q 3116 2381 2855 2742 
Q 2594 3103 2138 3103 
Q 1681 3103 1420 2742 
Q 1159 2381 1159 1747 
Q 1159 1113 1420 752 
Q 1681 391 2138 391 
Q 2594 391 2855 752 
Q 3116 1113 3116 1747 
z
M 1159 2969 
Q 1341 3281 1617 3432 
Q 1894 3584 2278 3584 
Q 2916 3584 3314 3078 
Q 3713 2572 3713 1747 
Q 3713 922 3314 415 
Q 2916 -91 2278 -91 
Q 1894 -91 1617 61 
Q 1341 213 1159 525 
L 1159 0 
L 581 0 
L 581 4863 
L 1159 4863 
L 1159 2969 
z
" transform="scale(0.015625)"/>
      </defs>
      <use xlink:href="#DejaVuSans-2b"/>
      <use xlink:href="#DejaVuSans-52" transform="translate(75.203125 0)"/>
      <use xlink:href="#DejaVuSans-4f" transform="translate(136.390625 0)"/>
      <use xlink:href="#DejaVuSans-47" transform="translate(164.171875 0)"/>
      <use xlink:href="#DejaVuSans-52" transform="translate(227.65625 0)"/>
      <use xlink:href="#DejaVuSans-58" transform="translate(288.84375 0)"/>
      <use xlink:href="#DejaVuSans-57" transform="translate(352.21875 0)"/>
      <use xlink:href="#DejaVuSans-3" transform="translate(391.421875 0)"/>
      <use xlink:href="#DejaVuSans-45" transform="translate(423.203125 0)"/>
      <use xlink:href="#DejaVuSans-44" transform="translate(486.6875 0)"/>
      <use xlink:href="#DejaVuSans-56" transform="translate(547.96875 0)"/>
      <use xlink:href="#DejaVuSans-48" transform="translate(600.0625 0)"/>
      <use xlink:href="#DejaVuSans-3" transform="translate(661.59375 0)"/>
      <use xlink:href="#DejaVuSans-55" transform="translate(693.375 0)"/>
      <use xlink:href="#DejaVuSans-44" transform="translate(734.484375 0)"/>
      <use xlink:href="#DejaVuSans-57" transform="translate(795.765625 0)"/>
      <use xlink:href="#DejaVuSans-48" transform="translate(834.96875 0)"/>
     </g>
    </g>
   </g>
  </g>
 </g>
 <defs>
  <clipPath id="p51cfa5770a">
   <rect x="47.962344" y="26.16" width="451.717656" height="277.317656"/>
  </clipPath>
 </defs>
</svg>
