<?xml version="1.0" encoding="utf-8" standalone="no"?>
<!DOCTYPE svg PUBLIC "-//W3C//DTD SVG 1.1//EN"
  "http://www.w3.org/Graphics/SVG/1.1/DTD/svg11.dtd">
<svg xmlns:xlink="http://www.w3.org/1999/xlink" width="648pt" height="324pt" viewBox="0 0 648 324" xmlns="http://www.w3.org/2000/svg" version="1.1">
 <metadata>
  <rdf:RDF xmlns:dc="http://purl.org/dc/elements/1.1/" xmlns:cc="http://creativecommons.org/ns#" xmlns:rdf="http://www.w3.org/1999/02/22-rdf-syntax-ns#">
   <cc:Work>
    <dc:type rdf:resource="http://purl.org/dc/dcmitype/StillImage"/>
    <dc:date>2026-08-12T21:00:21.660820</dc:date>
    <dc:format>image/svg+xml</dc:format>
    <dc:creator>
     <cc:Agent>
      <dc:title>Matplotlib v3.11.1, https://matplotlib.org/</dc:title>
     </cc:Agent>
    </dc:creator>
   </cc:Work>
  </rdf:RDF>
 </metadata>
 <defs>
  <style type="text/css">*{stroke-linejoin: round; stroke-linecap: butt}</style>
 </defs>
 <g id="figure_1">
  <g id="patch_1">
   <path d="M 0 324 
L 648 324 
L 648 0 
L 0 0 
z
" style="fill: #ffffff"/>
  </g>
  <g id="axes_1">
   <g id="patch_2">
    <path d="M 45.8929 268.019746 
L 637.2 268.019746 
L 637.2 26.16 
L 45.8929 26.16 
z
" style="fill: #ffffff"/>
   </g>
   <g id="matplotlib.axis_1">
    <g id="xtick_1">
     <g id="line2d_1">
      <defs>
       <path id="mba120f5088" d="M 0 0 
L 0 3.5 
" style="stroke: #000000; stroke-width: 0.8"/>
      </defs>
      <g>
       <use xlink:href="#mba120f5088" x="70.662851" y="268.019746" style="stroke: #000000; stroke-width: 0.8"/>
      </g>
     </g>
     <g id="text_1">
      <!-- 2026-04-01 -->
      <g transform="translate(19.132071 310.657322) rotate(-30) scale(0.1 -0.1)">
       <defs>
        <path id="DejaVuSans-15" d="M 1228 531 
L 3431 531 
L 3431 0 
L 469 0 
L 469 531 
Q 828 903 1448 1529 
Q 2069 2156 2228 2338 
Q 2531 2678 2651 2914 
Q 2772 3150 2772 3378 
Q 2772 3750 2511 3984 
Q 2250 4219 1831 4219 
Q 1534 4219 1204 4116 
Q 875 4013 500 3803 
L 500 4441 
Q 881 4594 1212 4672 
Q 1544 4750 1819 4750 
Q 2544 4750 2975 4387 
Q 3406 4025 3406 3419 
Q 3406 3131 3298 2873 
Q 3191 2616 2906 2266 
Q 2828 2175 2409 1742 
Q 1991 1309 1228 531 
z
" transform="scale(0.015625)"/>
        <path id="DejaVuSans-13" d="M 2034 4250 
Q 1547 4250 1301 3770 
Q 1056 3291 1056 2328 
Q 1056 1369 1301 889 
Q 1547 409 2034 409 
Q 2525 409 2770 889 
Q 3016 1369 3016 2328 
Q 3016 3291 2770 3770 
Q 2525 4250 2034 4250 
z
M 2034 4750 
Q 2819 4750 3233 4129 
Q 3647 3509 3647 2328 
Q 3647 1150 3233 529 
Q 2819 -91 2034 -91 
Q 1250 -91 836 529 
Q 422 1150 422 2328 
Q 422 3509 836 4129 
Q 1250 4750 2034 4750 
z
" transform="scale(0.015625)"/>
        <path id="DejaVuSans-19" d="M 2113 2584 
Q 1688 2584 1439 2293 
Q 1191 2003 1191 1497 
Q 1191 994 1439 701 
Q 1688 409 2113 409 
Q 2538 409 2786 701 
Q 3034 994 3034 1497 
Q 3034 2003 2786 2293 
Q 2538 2584 2113 2584 
z
M 3366 4563 
L 3366 3988 
Q 3128 4100 2886 4159 
Q 2644 4219 2406 4219 
Q 1781 4219 1451 3797 
Q 1122 3375 1075 2522 
Q 1259 2794 1537 2939 
Q 1816 3084 2150 3084 
Q 2853 3084 3261 2657 
Q 3669 2231 3669 1497 
Q 3669 778 3244 343 
Q 2819 -91 2113 -91 
Q 1303 -91 875 529 
Q 447 1150 447 2328 
Q 447 3434 972 4092 
Q 1497 4750 2381 4750 
Q 2619 4750 2861 4703 
Q 3103 4656 3366 4563 
z
" transform="scale(0.015625)"/>
        <path id="DejaVuSans-10" d="M 313 2009 
L 1997 2009 
L 1997 1497 
L 313 1497 
L 313 2009 
z
" transform="scale(0.015625)"/>
        <path id="DejaVuSans-17" d="M 2419 4116 
L 825 1625 
L 2419 1625 
L 2419 4116 
z
M 2253 4666 
L 3047 4666 
L 3047 1625 
L 3713 1625 
L 3713 1100 
L 3047 1100 
L 3047 0 
L 2419 0 
L 2419 1100 
L 313 1100 
L 313 1709 
L 2253 4666 
z
" transform="scale(0.015625)"/>
        <path id="DejaVuSans-14" d="M 794 531 
L 1825 531 
L 1825 4091 
L 703 3866 
L 703 4441 
L 1819 4666 
L 2450 4666 
L 2450 531 
L 3481 531 
L 3481 0 
L 794 0 
L 794 531 
z
" transform="scale(0.015625)"/>
       </defs>
       <use xlink:href="#DejaVuSans-15"/>
       <use xlink:href="#DejaVuSans-13" transform="translate(63.625 0)"/>
       <use xlink:href="#DejaVuSans-15" transform="translate(127.25 0)"/>
       <use xlink:href="#DejaVuSans-19" transform="translate(190.875 0)"/>
       <use xlink:href="#DejaVuSans-10" transform="translate(254.5 0)"/>
       <use xlink:href="#DejaVuSans-13" transform="translate(290.578125 0)"/>
       <use xlink:href="#DejaVuSans-17" transform="translate(354.203125 0)"/>
       <use xlink:href="#DejaVuSans-10" transform="translate(417.828125 0)"/>
       <use xlink:href="#DejaVuSans-13" transform="translate(453.90625 0)"/>
       <use xlink:href="#DejaVuSans-14" transform="translate(517.53125 0)"/>
      </g>
     </g>
    </g>
    <g id="xtick_2">
     <g id="line2d_2">
      <g>
       <use xlink:href="#mba120f5088" x="158.161959" y="268.019746" style="stroke: #000000; stroke-width: 0.8"/>
      </g>
     </g>
     <g id="text_2">
      <!-- 2026-04-15 -->
      <g transform="translate(106.631179 310.657322) rotate(-30) scale(0.1 -0.1)">
       <defs>
        <path id="DejaVuSans-18" d="M 691 4666 
L 3169 4666 
L 3169 4134 
L 1269 4134 
L 1269 2991 
Q 1406 3038 1543 3061 
Q 1681 3084 1819 3084 
Q 2600 3084 3056 2656 
Q 3513 2228 3513 1497 
Q 3513 744 3044 326 
Q 2575 -91 1722 -91 
Q 1428 -91 1123 -41 
Q 819 9 494 109 
L 494 744 
Q 775 591 1075 516 
Q 1375 441 1709 441 
Q 2250 441 2565 725 
Q 2881 1009 2881 1497 
Q 2881 1984 2565 2268 
Q 2250 2553 1709 2553 
Q 1456 2553 1204 2497 
Q 953 2441 691 2322 
L 691 4666 
z
" transform="scale(0.015625)"/>
       </defs>
       <use xlink:href="#DejaVuSans-15"/>
       <use xlink:href="#DejaVuSans-13" transform="translate(63.625 0)"/>
       <use xlink:href="#DejaVuSans-15" transform="translate(127.25 0)"/>
       <use xlink:href="#DejaVuSans-19" transform="translate(190.875 0)"/>
       <use xlink:href="#DejaVuSans-10" transform="translate(254.5 0)"/>
       <use xlink:href="#DejaVuSans-13" transform="translate(290.578125 0)"/>
       <use xlink:href="#DejaVuSans-17" transform="translate(354.203125 0)"/>
       <use xlink:href="#DejaVuSans-10" transform="translate(417.828125 0)"/>
       <use xlink:href="#DejaVuSans-14" transform="translate(453.90625 0)"/>
       <use xlink:href="#DejaVuSans-18" transform="translate(517.53125 0)"/>
      </g>
     </g>
    </g>
    <g id="xtick_3">
     <g id="line2d_3">
      <g>
       <use xlink:href="#mba120f5088" x="258.160939" y="268.019746" style="stroke: #000000; stroke-width: 0.8"/>
      </g>
     </g>
     <g id="text_3">
      <!-- 2026-05-01 -->
      <g transform="translate(206.63016 310.657322) rotate(-30) scale(0.1 -0.1)">
       <use xlink:href="#DejaVuSans-15"/>
       <use xlink:href="#DejaVuSans-13" transform="translate(63.625 0)"/>
       <use xlink:href="#DejaVuSans-15" transform="translate(127.25 0)"/>
       <use xlink:href="#DejaVuSans-19" transform="translate(190.875 0)"/>
       <use xlink:href="#DejaVuSans-10" transform="translate(254.5 0)"/>
       <use xlink:href="#DejaVuSans-13" transform="translate(290.578125 0)"/>
       <use xlink:href="#DejaVuSans-18" transform="translate(354.203125 0)"/>
       <use xlink:href="#DejaVuSans-10" transform="translate(417.828125 0)"/>
       <use xlink:href="#DejaVuSans-13" transform="translate(453.90625 0)"/>
       <use xlink:href="#DejaVuSans-14" transform="translate(517.53125 0)"/>
      </g>
     </g>
    </g>
    <g id="xtick_4">
     <g id="line2d_4">
      <g>
       <use xlink:href="#mba120f5088" x="345.660047" y="268.019746" style="stroke: #000000; stroke-width: 0.8"/>
      </g>
     </g>
     <g id="text_4">
      <!-- 2026-05-15 -->
      <g transform="translate(294.129267 310.657322) rotate(-30) scale(0.1 -0.1)">
       <use xlink:href="#DejaVuSans-15"/>
       <use xlink:href="#DejaVuSans-13" transform="translate(63.625 0)"/>
       <use xlink:href="#DejaVuSans-15" transform="translate(127.25 0)"/>
       <use xlink:href="#DejaVuSans-19" transform="translate(190.875 0)"/>
       <use xlink:href="#DejaVuSans-10" transform="translate(254.5 0)"/>
       <use xlink:href="#DejaVuSans-13" transform="translate(290.578125 0)"/>
       <use xlink:href="#DejaVuSans-18" transform="translate(354.203125 0)"/>
       <use xlink:href="#DejaVuSans-10" transform="translate(417.828125 0)"/>
       <use xlink:href="#DejaVuSans-14" transform="translate(453.90625 0)"/>
       <use xlink:href="#DejaVuSans-18" transform="translate(517.53125 0)"/>
      </g>
     </g>
    </g>
    <g id="xtick_5">
     <g id="line2d_5">
      <g>
       <use xlink:href="#mba120f5088" x="451.908964" y="268.019746" style="stroke: #000000; stroke-width: 0.8"/>
      </g>
     </g>
     <g id="text_5">
      <!-- 2026-06-01 -->
      <g transform="translate(400.378184 310.657322) rotate(-30) scale(0.1 -0.1)">
       <use xlink:href="#DejaVuSans-15"/>
       <use xlink:href="#DejaVuSans-13" transform="translate(63.625 0)"/>
       <use xlink:href="#DejaVuSans-15" transform="translate(127.25 0)"/>
       <use xlink:href="#DejaVuSans-19" transform="translate(190.875 0)"/>
       <use xlink:href="#DejaVuSans-10" transform="translate(254.5 0)"/>
       <use xlink:href="#DejaVuSans-13" transform="translate(290.578125 0)"/>
       <use xlink:href="#DejaVuSans-19" transform="translate(354.203125 0)"/>
       <use xlink:href="#DejaVuSans-10" transform="translate(417.828125 0)"/>
       <use xlink:href="#DejaVuSans-13" transform="translate(453.90625 0)"/>
       <use xlink:href="#DejaVuSans-14" transform="translate(517.53125 0)"/>
      </g>
     </g>
    </g>
    <g id="xtick_6">
     <g id="line2d_6">
      <g>
       <use xlink:href="#mba120f5088" x="539.408071" y="268.019746" style="stroke: #000000; stroke-width: 0.8"/>
      </g>
     </g>
     <g id="text_6">
      <!-- 2026-06-15 -->
      <g transform="translate(487.877292 310.657322) rotate(-30) scale(0.1 -0.1)">
       <use xlink:href="#DejaVuSans-15"/>
       <use xlink:href="#DejaVuSans-13" transform="translate(63.625 0)"/>
       <use xlink:href="#DejaVuSans-15" transform="translate(127.25 0)"/>
       <use xlink:href="#DejaVuSans-19" transform="translate(190.875 0)"/>
       <use xlink:href="#DejaVuSans-10" transform="translate(254.5 0)"/>
       <use xlink:href="#DejaVuSans-13" transform="translate(290.578125 0)"/>
       <use xlink:href="#DejaVuSans-19" transform="translate(354.203125 0)"/>
       <use xlink:href="#DejaVuSans-10" transform="translate(417.828125 0)"/>
       <use xlink:href="#DejaVuSans-14" transform="translate(453.90625 0)"/>
       <use xlink:href="#DejaVuSans-18" transform="translate(517.53125 0)"/>
      </g>
     </g>
    </g>
   </g>
   <g id="matplotlib.axis_2">
    <g id="ytick_1">
     <g id="line2d_7">
      <defs>
       <path id="m38680fd60e" d="M 0 0 
L -3.5 0 
" style="stroke: #000000; stroke-width: 0.8"/>
      </defs>
      <g>
       <use xlink:href="#m38680fd60e" x="45.8929" y="257.026121" style="stroke: #000000; stroke-width: 0.8"/>
      </g>
     </g>
     <g id="text_7">
      <!-- 0 -->
      <g transform="translate(32.5304 260.824949) scale(0.1 -0.1)">
       <use xlink:href="#DejaVuSans-13"/>
      </g>
     </g>
    </g>
    <g id="ytick_2">
     <g id="line2d_8">
      <g>
       <use xlink:href="#m38680fd60e" x="45.8929" y="213.051622" style="stroke: #000000; stroke-width: 0.8"/>
      </g>
     </g>
     <g id="text_8">
      <!-- 5 -->
      <g transform="translate(32.5304 216.85045) scale(0.1 -0.1)">
       <use xlink:href="#DejaVuSans-18"/>
      </g>
     </g>
    </g>
    <g id="ytick_3">
     <g id="line2d_9">
      <g>
       <use xlink:href="#m38680fd60e" x="45.8929" y="169.077123" style="stroke: #000000; stroke-width: 0.8"/>
      </g>
     </g>
     <g id="text_9">
      <!-- 10 -->
      <g transform="translate(26.1679 172.875951) scale(0.1 -0.1)">
       <use xlink:href="#DejaVuSans-14"/>
       <use xlink:href="#DejaVuSans-13" transform="translate(63.625 0)"/>
      </g>
     </g>
    </g>
    <g id="ytick_4">
     <g id="line2d_10">
      <g>
       <use xlink:href="#m38680fd60e" x="45.8929" y="125.102623" style="stroke: #000000; stroke-width: 0.8"/>
      </g>
     </g>
     <g id="text_10">
      <!-- 15 -->
      <g transform="translate(26.1679 128.901451) scale(0.1 -0.1)">
       <use xlink:href="#DejaVuSans-14"/>
       <use xlink:href="#DejaVuSans-18" transform="translate(63.625 0)"/>
      </g>
     </g>
    </g>
    <g id="ytick_5">
     <g id="line2d_11">
      <g>
       <use xlink:href="#m38680fd60e" x="45.8929" y="81.128124" style="stroke: #000000; stroke-width: 0.8"/>
      </g>
     </g>
     <g id="text_11">
      <!-- 20 -->
      <g transform="translate(26.1679 84.926952) scale(0.1 -0.1)">
       <use xlink:href="#DejaVuSans-15"/>
       <use xlink:href="#DejaVuSans-13" transform="translate(63.625 0)"/>
      </g>
     </g>
    </g>
    <g id="ytick_6">
     <g id="line2d_12">
      <g>
       <use xlink:href="#m38680fd60e" x="45.8929" y="37.153625" style="stroke: #000000; stroke-width: 0.8"/>
      </g>
     </g>
     <g id="text_12">
      <!-- 25 -->
      <g transform="translate(26.1679 40.952453) scale(0.1 -0.1)">
       <use xlink:href="#DejaVuSans-15"/>
       <use xlink:href="#DejaVuSans-18" transform="translate(63.625 0)"/>
      </g>
     </g>
    </g>
    <g id="text_13">
     <!-- pending alerts -->
     <g transform="translate(19.765556 183.154717) rotate(-90) scale(0.1 -0.1)">
      <defs>
       <path id="DejaVuSans-53" d="M 1159 525 
L 1159 -1331 
L 581 -1331 
L 581 3500 
L 1159 3500 
L 1159 2969 
Q 1341 3281 1617 3432 
Q 1894 3584 2278 3584 
Q 2916 3584 3314 3078 
Q 3713 2572 3713 1747 
Q 3713 922 3314 415 
Q 2916 -91 2278 -91 
Q 1894 -91 1617 61 
Q 1341 213 1159 525 
z
M 3116 1747 
Q 3116 2381 2855 2742 
Q 2594 3103 2138 3103 
Q 1681 3103 1420 2742 
Q 1159 2381 1159 1747 
Q 1159 1113 1420 752 
Q 1681 391 2138 391 
Q 2594 391 2855 752 
Q 3116 1113 3116 1747 
z
" transform="scale(0.015625)"/>
       <path id="DejaVuSans-48" d="M 3597 1894 
L 3597 1613 
L 953 1613 
Q 991 1019 1311 708 
Q 1631 397 2203 397 
Q 2534 397 2845 478 
Q 3156 559 3463 722 
L 3463 178 
Q 3153 47 2828 -22 
Q 2503 -91 2169 -91 
Q 1331 -91 842 396 
Q 353 884 353 1716 
Q 353 2575 817 3079 
Q 1281 3584 2069 3584 
Q 2775 3584 3186 3129 
Q 3597 2675 3597 1894 
z
M 3022 2063 
Q 3016 2534 2758 2815 
Q 2500 3097 2075 3097 
Q 1594 3097 1305 2825 
Q 1016 2553 972 2059 
L 3022 2063 
z
" transform="scale(0.015625)"/>
       <path id="DejaVuSans-51" d="M 3513 2113 
L 3513 0 
L 2938 0 
L 2938 2094 
Q 2938 2591 2744 2837 
Q 2550 3084 2163 3084 
Q 1697 3084 1428 2787 
Q 1159 2491 1159 1978 
L 1159 0 
L 581 0 
L 581 3500 
L 1159 3500 
L 1159 2956 
Q 1366 3272 1645 3428 
Q 1925 3584 2291 3584 
Q 2894 3584 3203 3211 
Q 3513 2838 3513 2113 
z
" transform="scale(0.015625)"/>
       <path id="DejaVuSans-47" d="M 2906 2969 
L 2906 4863 
L 3481 4863 
L 3481 0 
L 2906 0 
L 2906 525 
Q 2725 213 2448 61 
Q 2172 -91 1784 -91 
Q 1150 -91 751 415 
Q 353 922 353 1747 
Q 353 2572 751 3078 
Q 1150 3584 1784 3584 
Q 2172 3584 2448 3432 
Q 2725 3281 2906 2969 
z
M 947 1747 
Q 947 1113 1208 752 
Q 1469 391 1925 391 
Q 2381 391 2643 752 
Q 2906 1113 2906 1747 
Q 2906 2381 2643 2742 
Q 2381 3103 1925 3103 
Q 1469 3103 1208 2742 
Q 947 2381 947 1747 
z
" transform="scale(0.015625)"/>
       <path id="DejaVuSans-4c" d="M 603 3500 
L 1178 3500 
L 1178 0 
L 603 0 
L 603 3500 
z
M 603 4863 
L 1178 4863 
L 1178 4134 
L 603 4134 
L 603 4863 
z
" transform="scale(0.015625)"/>
       <path id="DejaVuSans-4a" d="M 2906 1791 
Q 2906 2416 2648 2759 
Q 2391 3103 1925 3103 
Q 1463 3103 1205 2759 
Q 947 2416 947 1791 
Q 947 1169 1205 825 
Q 1463 481 1925 481 
Q 2391 481 2648 825 
Q 2906 1169 2906 1791 
z
M 3481 434 
Q 3481 -459 3084 -895 
Q 2688 -1331 1869 -1331 
Q 1566 -1331 1297 -1286 
Q 1028 -1241 775 -1147 
L 775 -588 
Q 1028 -725 1275 -790 
Q 1522 -856 1778 -856 
Q 2344 -856 2625 -561 
Q 2906 -266 2906 331 
L 2906 616 
Q 2728 306 2450 153 
Q 2172 0 1784 0 
Q 1141 0 747 490 
Q 353 981 353 1791 
Q 353 2603 747 3093 
Q 1141 3584 1784 3584 
Q 2172 3584 2450 3431 
Q 2728 3278 2906 2969 
L 2906 3500 
L 3481 3500 
L 3481 434 
z
" transform="scale(0.015625)"/>
       <path id="DejaVuSans-3" transform="scale(0.015625)"/>
       <path id="DejaVuSans-44" d="M 2194 1759 
Q 1497 1759 1228 1600 
Q 959 1441 959 1056 
Q 959 750 1161 570 
Q 1363 391 1709 391 
Q 2188 391 2477 730 
Q 2766 1069 2766 1631 
L 2766 1759 
L 2194 1759 
z
M 3341 1997 
L 3341 0 
L 2766 0 
L 2766 531 
Q 2569 213 2275 61 
Q 1981 -91 1556 -91 
Q 1019 -91 701 211 
Q 384 513 384 1019 
Q 384 1609 779 1909 
Q 1175 2209 1959 2209 
L 2766 2209 
L 2766 2266 
Q 2766 2663 2505 2880 
Q 2244 3097 1772 3097 
Q 1472 3097 1187 3025 
Q 903 2953 641 2809 
L 641 3341 
Q 956 3463 1253 3523 
Q 1550 3584 1831 3584 
Q 2591 3584 2966 3190 
Q 3341 2797 3341 1997 
z
" transform="scale(0.015625)"/>
       <path id="DejaVuSans-4f" d="M 603 4863 
L 1178 4863 
L 1178 0 
L 603 0 
L 603 4863 
z
" transform="scale(0.015625)"/>
       <path id="DejaVuSans-55" d="M 2631 2963 
Q 2534 3019 2420 3045 
Q 2306 3072 2169 3072 
Q 1681 3072 1420 2755 
Q 1159 2438 1159 1844 
L 1159 0 
L 581 0 
L 581 3500 
L 1159 3500 
L 1159 2956 
Q 1341 3275 1631 3429 
Q 1922 3584 2338 3584 
Q 2397 3584 2469 3576 
Q 2541 3569 2628 3553 
L 2631 2963 
z
" transform="scale(0.015625)"/>
       <path id="DejaVuSans-57" d="M 1172 4494 
L 1172 3500 
L 2356 3500 
L 2356 3053 
L 1172 3053 
L 1172 1153 
Q 1172 725 1289 603 
Q 1406 481 1766 481 
L 2356 481 
L 2356 0 
L 1766 0 
Q 1100 0 847 248 
Q 594 497 594 1153 
L 594 3053 
L 172 3053 
L 172 3500 
L 594 3500 
L 594 4494 
L 1172 4494 
z
" transform="scale(0.015625)"/>
       <path id="DejaVuSans-56" d="M 2834 3397 
L 2834 2853 
Q 2591 2978 2328 3040 
Q 2066 3103 1784 3103 
Q 1356 3103 1142 2972 
Q 928 2841 928 2578 
Q 928 2378 1081 2264 
Q 1234 2150 1697 2047 
L 1894 2003 
Q 2506 1872 2764 1633 
Q 3022 1394 3022 966 
Q 3022 478 2636 193 
Q 2250 -91 1575 -91 
Q 1294 -91 989 -36 
Q 684 19 347 128 
L 347 722 
Q 666 556 975 473 
Q 1284 391 1588 391 
Q 1994 391 2212 530 
Q 2431 669 2431 922 
Q 2431 1156 2273 1281 
Q 2116 1406 1581 1522 
L 1381 1569 
Q 847 1681 609 1914 
Q 372 2147 372 2553 
Q 372 3047 722 3315 
Q 1072 3584 1716 3584 
Q 2034 3584 2315 3537 
Q 2597 3491 2834 3397 
z
" transform="scale(0.015625)"/>
      </defs>
      <use xlink:href="#DejaVuSans-53"/>
      <use xlink:href="#DejaVuSans-48" transform="translate(63.484375 0)"/>
      <use xlink:href="#DejaVuSans-51" transform="translate(125.015625 0)"/>
      <use xlink:href="#DejaVuSans-47" transform="translate(188.390625 0)"/>
      <use xlink:href="#DejaVuSans-4c" transform="translate(251.875 0)"/>
      <use xlink:href="#DejaVuSans-51" transform="translate(279.65625 0)"/>
      <use xlink:href="#DejaVuSans-4a" transform="translate(343.03125 0)"/>
      <use xlink:href="#DejaVuSans-3" transform="translate(406.515625 0)"/>
      <use xlink:href="#DejaVuSans-44" transform="translate(438.296875 0)"/>
      <use xlink:href="#DejaVuSans-4f" transform="translate(499.578125 0)"/>
      <use xlink:href="#DejaVuSans-48" transform="translate(527.359375 0)"/>
      <use xlink:href="#DejaVuSans-55" transform="translate(588.890625 0)"/>
      <use xlink:href="#DejaVuSans-57" transform="translate(630 0)"/>
      <use xlink:href="#DejaVuSans-56" transform="translate(669.203125 0)"/>
     </g>
    </g>
   </g>
   <g id="line2d_13">
    <path d="M 72.770496 221.846522 
L 72.854824 257.026121 
L 79.793858 257.026121 
L 79.032823 116.307723 
L 79.352025 195.461822 
L 79.630397 257.026121 
L 81.388739 257.026121 
L 85.261177 107.512824 
L 85.702934 257.026121 
L 92.328851 257.026121 
L 92.356934 116.307723 
L 92.437919 133.897523 
L 92.927631 239.436321 
L 93.049248 257.026121 
L 93.876959 257.026121 
L 98.535335 151.487323 
L 98.706643 186.666922 
L 99.045105 257.026121 
L 100.164966 257.026121 
L 104.011061 169.077123 
L 104.192143 204.256722 
L 104.526551 257.026121 
L 105.673982 257.026121 
L 110.282355 116.307723 
L 110.659291 213.051622 
L 110.852595 257.026121 
L 111.538153 257.026121 
L 116.511166 125.102623 
L 116.964547 257.026121 
L 118.856744 257.026121 
L 122.783892 151.487323 
L 122.896879 204.256722 
L 123.062262 230.641422 
L 123.118361 257.026121 
L 125.161314 257.026121 
L 129.052222 125.102623 
L 129.296224 195.461822 
L 129.53493 257.026121 
L 131.430887 257.026121 
L 136.045341 160.282223 
L 136.270294 195.461822 
L 136.33656 195.461822 
L 136.509104 248.231221 
L 136.585636 257.026121 
L 136.670332 248.231221 
L 136.675501 257.026121 
L 137.260796 257.026121 
L 142.307515 98.717924 
L 142.740985 221.846522 
L 143.025967 257.026121 
L 143.938855 257.026121 
L 147.758118 169.077123 
L 147.84305 195.461822 
L 148.037471 257.026121 
L 149.001858 257.026121 
L 154.009227 116.307723 
L 154.272211 177.872022 
L 154.525917 257.026121 
L 160.267012 257.026121 
L 160.292141 81.128124 
L 160.393723 89.923024 
L 160.408073 89.923024 
L 160.582122 142.692423 
L 160.683063 142.692423 
L 160.704835 125.102623 
L 160.71344 133.897523 
L 160.937184 160.282223 
L 161.206449 257.026121 
L 162.329443 257.026121 
L 166.527741 142.692423 
L 166.844048 239.436321 
L 166.861723 257.026121 
L 172.745815 257.026121 
L 168.961214 257.026121 
L 172.775423 177.872022 
L 173.058018 213.051622 
L 173.17055 230.641422 
L 173.242908 257.026121 
L 175.005663 257.026121 
L 175.082625 248.231221 
L 175.100116 257.026121 
L 175.212132 257.026121 
L 179.81106 89.923024 
L 180.0485 125.102623 
L 180.068484 125.102623 
L 180.448218 213.051622 
L 180.594828 257.026121 
L 181.356063 257.026121 
L 186.066543 133.897523 
L 186.192806 177.872022 
L 186.528178 248.231221 
L 186.54299 257.026121 
L 187.697858 257.026121 
L 191.513079 151.487323 
L 191.886544 248.231221 
L 191.943657 239.436321 
L 192.031248 257.026121 
L 192.879515 257.026121 
L 197.757477 98.717924 
L 197.89844 125.102623 
L 197.908078 107.512824 
L 197.960771 125.102623 
L 198.270221 204.256722 
L 198.415849 248.231221 
L 198.437475 257.026121 
L 204.016619 257.026121 
L 204.058249 160.282223 
L 204.135107 186.666922 
L 204.255897 221.846522 
L 204.411393 248.231221 
L 204.46307 248.231221 
L 204.498109 257.026121 
L 205.97492 257.026121 
L 210.260547 160.282223 
L 210.489466 257.026121 
L 216.526697 257.026121 
L 212.000332 257.026121 
L 216.535161 142.692423 
L 216.717611 213.051622 
L 216.930422 257.026121 
L 218.945838 257.026121 
L 223.544254 151.487323 
L 223.69291 195.461822 
L 223.860898 230.641422 
L 223.998176 257.026121 
L 225.1761 257.026121 
L 229.800776 89.923024 
L 230.123876 160.282223 
L 230.177247 151.487323 
L 230.257814 160.282223 
L 230.299093 151.487323 
L 230.319503 169.077123 
L 230.643963 257.026121 
L 248.542954 257.026121 
L 235.299524 63.538324 
L 235.533843 133.897523 
L 235.954178 257.026121 
L 236.686694 257.026121 
L 241.505236 116.307723 
L 241.689089 177.872022 
L 241.900827 257.026121 
L 242.213388 257.026121 
L 247.752622 54.743425 
L 247.919826 116.307723 
L 248.018425 142.692423 
L 248.12558 169.077123 
L 248.41981 257.026121 
L 254.832288 257.026121 
L 254.016456 160.282223 
L 254.099225 177.872022 
L 254.316922 257.026121 
L 256.41254 257.026121 
L 260.258016 81.128124 
L 260.495595 160.282223 
L 260.628755 186.666922 
L 260.990155 257.026121 
L 262.484494 257.026121 
L 267.296714 133.897523 
L 267.439504 169.077123 
L 267.718696 221.846522 
L 267.742803 221.846522 
L 267.970999 257.026121 
L 268.900869 257.026121 
L 273.533292 133.897523 
L 273.712958 177.872022 
L 273.768245 177.872022 
L 274.152393 257.026121 
L 275.213562 257.026121 
L 279.022981 204.256722 
L 279.119671 257.026121 
L 280.547746 257.026121 
L 285.254735 142.692423 
L 285.538224 257.026121 
L 286.699742 257.026121 
L 291.520118 116.307723 
L 291.681721 169.077123 
L 291.732759 169.077123 
L 291.85857 195.461822 
L 292.157699 257.026121 
L 297.805742 257.026121 
L 293.884848 257.026121 
L 297.844535 142.692423 
L 298.207986 221.846522 
L 298.370122 257.026121 
L 304.018984 257.026121 
L 300.114465 257.026121 
L 304.036748 160.282223 
L 304.2621 239.436321 
L 304.495241 257.026121 
L 306.405568 257.026121 
L 311.050503 98.717924 
L 311.29105 160.282223 
L 311.606633 239.436321 
L 311.766928 257.026121 
L 312.661657 257.026121 
L 317.293838 151.487323 
L 317.532281 213.051622 
L 317.778003 257.026121 
L 318.935461 257.026121 
L 322.788518 195.461822 
L 323.021039 257.026121 
L 324.008911 257.026121 
L 329.007224 89.923024 
L 329.141912 133.897523 
L 329.551062 221.846522 
L 329.82792 257.026121 
L 330.60603 257.026121 
L 335.29267 89.923024 
L 335.437683 125.102623 
L 335.487341 125.102623 
L 335.68147 160.282223 
L 336.075979 257.026121 
L 342.275816 257.026121 
L 341.52749 89.923024 
L 341.810386 177.872022 
L 342.087534 248.231221 
L 342.232251 257.026121 
L 343.785182 257.026121 
L 347.76131 98.717924 
L 347.933686 142.692423 
L 348.097906 186.666922 
L 348.350071 257.026121 
L 350.032367 257.026121 
L 354.789101 116.307723 
L 355.107266 213.051622 
L 355.124852 213.051622 
L 355.245469 257.026121 
L 356.416705 257.026121 
L 361.142743 125.102623 
L 361.196249 142.692423 
L 361.392005 142.692423 
L 361.583738 213.051622 
L 361.626672 213.051622 
L 361.794683 257.026121 
L 379.792106 257.026121 
L 366.534151 160.282223 
L 366.964726 257.026121 
L 367.884533 257.026121 
L 372.751648 98.717924 
L 373.537673 257.026121 
L 379.00037 257.026121 
L 379.030313 116.307723 
L 379.078456 125.102623 
L 379.286841 169.077123 
L 379.629446 257.026121 
L 386.026932 257.026121 
L 385.280512 133.897523 
L 385.71334 221.846522 
L 385.888278 257.026121 
L 386.777606 257.026121 
L 386.749828 248.231221 
L 386.818872 257.026121 
L 387.714562 257.026121 
L 391.539792 204.256722 
L 391.656854 257.026121 
L 398.528254 257.026121 
L 398.541562 81.128124 
L 398.645822 98.717924 
L 398.832435 142.692423 
L 399.184615 239.436321 
L 399.251914 257.026121 
L 399.997209 257.026121 
L 404.788959 125.102623 
L 404.805385 116.307723 
L 404.853782 125.102623 
L 405.021575 186.666922 
L 405.113155 213.051622 
L 405.345181 248.231221 
L 405.371647 257.026121 
L 406.459613 257.026121 
L 410.264913 177.872022 
L 410.45963 257.026121 
L 411.743632 257.026121 
L 416.521852 81.128124 
L 416.690873 125.102623 
L 416.772086 142.692423 
L 416.897256 169.077123 
L 416.961237 169.077123 
L 417.259677 257.026121 
L 422.754396 257.026121 
L 422.760726 151.487323 
L 422.867641 186.666922 
L 423.130433 257.026121 
L 425.204164 257.026121 
L 429.802633 248.231221 
L 429.028793 151.487323 
L 429.144504 177.872022 
L 429.361358 257.026121 
L 431.396475 257.026121 
L 435.256471 142.692423 
L 435.416725 169.077123 
L 435.798121 257.026121 
L 437.563727 257.026121 
L 442.29218 133.897523 
L 442.577662 195.461822 
L 442.595719 195.461822 
L 442.739529 257.026121 
L 443.825128 257.026121 
L 448.543865 125.102623 
L 449.187103 257.026121 
L 450.09514 257.026121 
L 454.030785 107.512824 
L 454.287129 169.077123 
L 454.53271 248.231221 
L 454.643228 257.026121 
L 455.670066 257.026121 
L 460.261517 89.923024 
L 460.495737 160.282223 
L 460.692464 186.666922 
L 460.871696 257.026121 
L 461.623806 257.026121 
L 466.510786 142.692423 
L 466.986939 257.026121 
L 468.901173 257.026121 
L 472.747008 186.666922 
L 473.045288 257.026121 
L 479.796346 257.026121 
L 479.016463 186.666922 
L 479.039284 195.461822 
L 479.257345 257.026121 
L 481.440544 257.026121 
L 486.039161 160.282223 
L 486.507403 257.026121 
L 487.639656 257.026121 
L 492.300416 142.692423 
L 492.481386 204.256722 
L 492.646786 248.231221 
L 492.66827 257.026121 
L 493.864747 257.026121 
L 497.765298 204.256722 
L 497.905005 248.231221 
L 497.93695 257.026121 
L 499.388794 257.026121 
L 504.015926 142.692423 
L 504.321103 230.641422 
L 504.387684 257.026121 
L 505.647783 257.026121 
L 510.25495 37.153625 
L 510.47977 98.717924 
L 511.025302 257.026121 
L 512.40045 257.026121 
L 516.502437 204.256722 
L 516.772665 257.026121 
L 518.887449 257.026121 
L 522.773075 195.461822 
L 522.94517 257.026121 
L 525.15189 257.026121 
L 529.80791 116.307723 
L 529.937807 151.487323 
L 530.326449 239.436321 
L 530.375993 257.026121 
L 531.359334 257.026121 
L 536.081281 54.743425 
L 536.238834 116.307723 
L 536.436992 142.692423 
L 536.51818 142.692423 
L 536.716721 186.666922 
L 536.830196 204.256722 
L 536.979299 257.026121 
L 554.775882 257.026121 
L 541.549427 133.897523 
L 541.568009 133.897523 
L 541.946532 257.026121 
L 542.894005 257.026121 
L 547.760112 133.897523 
L 547.94605 177.872022 
L 548.07531 204.256722 
L 548.233303 257.026121 
L 548.772727 257.026121 
L 554.040158 151.487323 
L 554.254488 221.846522 
L 554.340226 257.026121 
L 556.414053 257.026121 
L 560.26347 125.102623 
L 560.661045 257.026121 
L 566.518384 257.026121 
L 562.265024 257.026121 
L 566.535314 160.282223 
L 566.735564 230.641422 
L 566.784838 221.846522 
L 566.80358 230.641422 
L 567.021733 257.026121 
L 568.669708 257.026121 
L 573.558828 133.897523 
L 573.877204 186.666922 
L 573.915195 186.666922 
L 574.101459 239.436321 
L 574.288383 257.026121 
L 575.009046 257.026121 
L 579.789451 195.461822 
L 580.142016 257.026121 
L 581.35 257.026121 
L 585.278854 151.487323 
L 585.414251 204.256722 
L 585.701693 257.026121 
L 586.818291 257.026121 
L 591.506859 107.512824 
L 591.8367 221.846522 
L 591.935341 221.846522 
L 592.097066 257.026121 
L 593.001144 257.026121 
L 597.795763 125.102623 
L 598.200454 248.231221 
L 598.280938 248.231221 
L 598.383248 257.026121 
L 600.104146 257.026121 
L 604.010657 177.872022 
L 604.354315 257.026121 
L 605.639611 257.026121 
L 610.251619 230.641422 
L 610.322405 257.026121 
L 610.322405 257.026121 
" clip-path="url(#pf1664aefcc)" style="fill: none; stroke: #1f77b4; stroke-width: 0.8; stroke-linecap: square"/>
   </g>
   <g id="line2d_14">
    <path d="M 72.770496 221.846522 
L 72.854824 257.026121 
L 79.793858 257.026121 
L 79.032823 116.307723 
L 79.352025 195.461822 
L 79.630397 257.026121 
L 81.388739 257.026121 
L 85.261177 107.512824 
L 85.702934 257.026121 
L 92.328851 257.026121 
L 92.356934 116.307723 
L 92.437919 133.897523 
L 92.927631 239.436321 
L 93.049248 257.026121 
L 93.876959 257.026121 
L 98.535335 151.487323 
L 98.706643 186.666922 
L 99.045105 257.026121 
L 100.164966 257.026121 
L 104.011061 169.077123 
L 104.192143 204.256722 
L 104.526551 257.026121 
L 105.673982 257.026121 
L 110.282355 116.307723 
L 110.659291 213.051622 
L 110.852595 257.026121 
L 111.538153 257.026121 
L 116.511166 125.102623 
L 116.964547 257.026121 
L 118.856744 257.026121 
L 122.783892 151.487323 
L 122.896879 204.256722 
L 123.062262 230.641422 
L 123.118361 257.026121 
L 125.161314 257.026121 
L 129.052222 125.102623 
L 129.296224 195.461822 
L 129.53493 257.026121 
L 131.430887 257.026121 
L 136.045341 160.282223 
L 136.270294 195.461822 
L 136.33656 195.461822 
L 136.509104 248.231221 
L 136.585636 257.026121 
L 136.670332 248.231221 
L 136.675501 257.026121 
L 137.260796 257.026121 
L 142.307515 98.717924 
L 142.740985 221.846522 
L 143.025967 257.026121 
L 143.938855 257.026121 
L 147.758118 169.077123 
L 147.84305 195.461822 
L 148.037471 257.026121 
L 149.001858 257.026121 
L 154.009227 116.307723 
L 154.272211 177.872022 
L 154.525917 257.026121 
L 160.267012 257.026121 
L 160.292141 81.128124 
L 160.393723 89.923024 
L 160.408073 89.923024 
L 160.582122 142.692423 
L 160.683063 142.692423 
L 160.704835 125.102623 
L 160.71344 133.897523 
L 160.937184 160.282223 
L 161.206449 257.026121 
L 162.329443 257.026121 
L 166.527741 142.692423 
L 166.844048 239.436321 
L 166.861723 257.026121 
L 172.745815 257.026121 
L 168.961214 257.026121 
L 172.775423 177.872022 
L 173.058018 213.051622 
L 173.17055 230.641422 
L 173.242908 257.026121 
L 175.005663 257.026121 
L 175.082625 248.231221 
L 175.100116 257.026121 
L 175.212132 257.026121 
L 179.81106 89.923024 
L 180.0485 125.102623 
L 180.068484 125.102623 
L 180.448218 213.051622 
L 180.594828 257.026121 
L 181.356063 257.026121 
L 186.066543 133.897523 
L 186.192806 177.872022 
L 186.528178 248.231221 
L 186.54299 257.026121 
L 187.697858 257.026121 
L 191.513079 151.487323 
L 191.886544 248.231221 
L 191.943657 239.436321 
L 192.031248 257.026121 
L 192.879515 257.026121 
L 197.757477 98.717924 
L 197.89844 125.102623 
L 197.908078 107.512824 
L 197.960771 125.102623 
L 198.270221 204.256722 
L 198.415849 248.231221 
L 198.437475 257.026121 
L 204.016619 257.026121 
L 204.058249 160.282223 
L 204.135107 186.666922 
L 204.255897 221.846522 
L 204.411393 248.231221 
L 204.46307 248.231221 
L 204.498109 257.026121 
L 205.97492 257.026121 
L 210.260547 160.282223 
L 210.489466 257.026121 
L 216.526697 257.026121 
L 212.000332 257.026121 
L 216.535161 142.692423 
L 216.717611 213.051622 
L 216.930422 257.026121 
L 218.945838 257.026121 
L 223.544254 151.487323 
L 223.69291 195.461822 
L 223.860898 230.641422 
L 223.998176 257.026121 
L 225.1761 257.026121 
L 229.800776 89.923024 
L 230.123876 160.282223 
L 230.177247 151.487323 
L 230.257814 160.282223 
L 230.299093 151.487323 
L 230.319503 169.077123 
L 230.643963 257.026121 
L 248.542954 257.026121 
L 235.299524 63.538324 
L 235.533843 133.897523 
L 235.954178 257.026121 
L 236.686694 257.026121 
L 241.505236 116.307723 
L 241.689089 177.872022 
L 241.900827 257.026121 
L 242.213388 257.026121 
L 247.752622 54.743425 
L 247.919826 116.307723 
L 248.018425 142.692423 
L 248.12558 169.077123 
L 248.41981 257.026121 
L 254.832288 257.026121 
L 254.016456 160.282223 
L 254.099225 177.872022 
L 254.316922 257.026121 
L 256.41254 257.026121 
L 260.258016 81.128124 
L 260.495595 160.282223 
L 260.628755 186.666922 
L 260.990155 257.026121 
L 262.484494 257.026121 
L 267.296714 133.897523 
L 267.439504 169.077123 
L 267.718696 221.846522 
L 267.742803 221.846522 
L 267.970999 257.026121 
L 268.900869 257.026121 
L 273.533292 133.897523 
L 273.712958 177.872022 
L 273.768245 177.872022 
L 274.152393 257.026121 
L 275.213562 257.026121 
L 279.022981 204.256722 
L 279.119671 257.026121 
L 280.547746 257.026121 
L 285.254735 142.692423 
L 285.538224 257.026121 
L 286.699742 257.026121 
L 291.520118 116.307723 
L 291.681721 169.077123 
L 291.732759 169.077123 
L 291.85857 195.461822 
L 292.157699 257.026121 
L 297.805742 257.026121 
L 293.884848 257.026121 
L 297.844535 142.692423 
L 298.207986 221.846522 
L 298.370122 257.026121 
L 304.018984 257.026121 
L 300.114465 257.026121 
L 304.036748 160.282223 
L 304.2621 239.436321 
L 304.495241 257.026121 
L 306.405568 257.026121 
L 311.050503 98.717924 
L 311.29105 160.282223 
L 311.606633 239.436321 
L 311.766928 257.026121 
L 312.661657 257.026121 
L 317.293838 151.487323 
L 317.532281 213.051622 
L 317.778003 257.026121 
L 318.935461 257.026121 
L 322.788518 195.461822 
L 323.021039 257.026121 
L 324.008911 257.026121 
L 329.007224 89.923024 
L 329.141912 133.897523 
L 329.551062 221.846522 
L 329.82792 257.026121 
L 330.60603 257.026121 
L 335.29267 89.923024 
L 335.437683 125.102623 
L 335.487341 125.102623 
L 335.68147 160.282223 
L 336.075979 257.026121 
L 342.275816 257.026121 
L 341.52749 89.923024 
L 341.810386 177.872022 
L 342.087534 248.231221 
L 342.232251 257.026121 
L 343.785182 257.026121 
L 347.76131 98.717924 
L 347.933686 142.692423 
L 348.097906 186.666922 
L 348.350071 257.026121 
L 350.032367 257.026121 
L 354.789101 116.307723 
L 355.107266 213.051622 
L 355.124852 213.051622 
L 355.245469 257.026121 
L 356.416705 257.026121 
L 361.142743 125.102623 
L 361.196249 142.692423 
L 361.392005 142.692423 
L 361.583738 213.051622 
L 361.626672 213.051622 
L 361.794683 257.026121 
L 379.792106 257.026121 
L 366.534151 160.282223 
L 366.964726 257.026121 
L 367.884533 257.026121 
L 372.751648 98.717924 
L 373.537673 257.026121 
L 379.00037 257.026121 
L 379.030313 116.307723 
L 379.078456 125.102623 
L 379.286841 169.077123 
L 379.629446 257.026121 
L 386.026932 257.026121 
L 385.280512 133.897523 
L 385.71334 221.846522 
L 385.888278 257.026121 
L 386.777606 257.026121 
L 386.749828 248.231221 
L 386.818872 257.026121 
L 387.714562 257.026121 
L 391.539792 204.256722 
L 391.656854 257.026121 
L 398.528254 257.026121 
L 398.541562 81.128124 
L 398.645822 98.717924 
L 398.832435 142.692423 
L 399.184615 239.436321 
L 399.251914 257.026121 
L 399.997209 257.026121 
L 404.788959 125.102623 
L 404.805385 116.307723 
L 404.853782 125.102623 
L 405.021575 186.666922 
L 405.113155 213.051622 
L 405.345181 248.231221 
L 405.371647 257.026121 
L 406.459613 257.026121 
L 410.264913 177.872022 
L 410.45963 257.026121 
L 411.743632 257.026121 
L 416.521852 81.128124 
L 416.690873 125.102623 
L 416.772086 142.692423 
L 416.897256 169.077123 
L 416.961237 169.077123 
L 417.259677 257.026121 
L 422.754396 257.026121 
L 422.760726 151.487323 
L 422.867641 186.666922 
L 423.130433 257.026121 
L 425.204164 257.026121 
L 429.802633 248.231221 
L 429.028793 151.487323 
L 429.144504 177.872022 
L 429.361358 257.026121 
L 431.396475 257.026121 
L 435.256471 142.692423 
L 435.416725 169.077123 
L 435.798121 257.026121 
L 437.563727 257.026121 
L 442.29218 133.897523 
L 442.577662 195.461822 
L 442.595719 195.461822 
L 442.739529 257.026121 
L 443.825128 257.026121 
L 448.543865 125.102623 
L 449.187103 257.026121 
L 450.09514 257.026121 
L 454.030785 107.512824 
L 454.287129 169.077123 
L 454.53271 248.231221 
L 454.643228 257.026121 
L 455.670066 257.026121 
L 460.261517 89.923024 
L 460.495737 160.282223 
L 460.692464 186.666922 
L 460.871696 257.026121 
L 461.623806 257.026121 
L 466.510786 142.692423 
L 466.986939 257.026121 
L 468.901173 257.026121 
L 472.747008 186.666922 
L 473.045288 257.026121 
L 479.796346 257.026121 
L 479.016463 186.666922 
L 479.039284 195.461822 
L 479.257345 257.026121 
L 481.440544 257.026121 
L 486.039161 160.282223 
L 486.507403 257.026121 
L 487.639656 257.026121 
L 492.300416 142.692423 
L 492.481386 204.256722 
L 492.646786 248.231221 
L 492.66827 257.026121 
L 493.864747 257.026121 
L 497.765298 204.256722 
L 497.905005 248.231221 
L 497.93695 257.026121 
L 499.388794 257.026121 
L 504.015926 142.692423 
L 504.321103 230.641422 
L 504.387684 257.026121 
L 505.647783 257.026121 
L 510.25495 37.153625 
L 510.47977 98.717924 
L 511.025302 257.026121 
L 512.40045 257.026121 
L 516.502437 204.256722 
L 516.772665 257.026121 
L 518.887449 257.026121 
L 522.773075 195.461822 
L 522.94517 257.026121 
L 525.15189 257.026121 
L 529.80791 116.307723 
L 529.937807 151.487323 
L 530.326449 239.436321 
L 530.375993 257.026121 
L 531.359334 257.026121 
L 536.081281 54.743425 
L 536.238834 116.307723 
L 536.436992 142.692423 
L 536.51818 142.692423 
L 536.716721 186.666922 
L 536.830196 204.256722 
L 536.979299 257.026121 
L 554.775882 257.026121 
L 541.549427 133.897523 
L 541.568009 133.897523 
L 541.946532 257.026121 
L 542.894005 257.026121 
L 547.760112 133.897523 
L 547.94605 177.872022 
L 548.07531 204.256722 
L 548.233303 257.026121 
L 548.772727 257.026121 
L 554.040158 151.487323 
L 554.254488 221.846522 
L 554.340226 257.026121 
L 556.414053 257.026121 
L 560.26347 125.102623 
L 560.661045 257.026121 
L 566.518384 257.026121 
L 562.265024 257.026121 
L 566.535314 160.282223 
L 566.735564 230.641422 
L 566.784838 221.846522 
L 566.80358 230.641422 
L 567.021733 257.026121 
L 568.669708 257.026121 
L 573.558828 133.897523 
L 573.877204 186.666922 
L 573.915195 186.666922 
L 574.101459 239.436321 
L 574.288383 257.026121 
L 575.009046 257.026121 
L 579.789451 195.461822 
L 580.142016 257.026121 
L 581.35 257.026121 
L 585.278854 151.487323 
L 585.414251 204.256722 
L 585.701693 257.026121 
L 586.818291 257.026121 
L 591.506859 107.512824 
L 591.8367 221.846522 
L 591.935341 221.846522 
L 592.097066 257.026121 
L 593.001144 257.026121 
L 597.795763 125.102623 
L 598.200454 248.231221 
L 598.280938 248.231221 
L 598.383248 257.026121 
L 600.104146 257.026121 
L 604.010657 177.872022 
L 604.354315 257.026121 
L 605.639611 257.026121 
L 610.251619 230.641422 
L 610.322405 257.026121 
L 610.322405 257.026121 
" clip-path="url(#pf1664aefcc)" style="fill: none; stroke: #ff7f0e; stroke-width: 0.8; stroke-linecap: square"/>
   </g>
   <g id="line2d_15">
    <path d="M 72.770496 221.846522 
L 72.854824 257.026121 
L 79.793858 257.026121 
L 79.032823 116.307723 
L 79.352025 195.461822 
L 79.630397 257.026121 
L 81.388739 257.026121 
L 85.261177 107.512824 
L 85.702934 257.026121 
L 92.328851 257.026121 
L 92.356934 116.307723 
L 92.437919 133.897523 
L 92.927631 239.436321 
L 93.049248 257.026121 
L 93.876959 257.026121 
L 98.535335 151.487323 
L 98.706643 186.666922 
L 99.045105 257.026121 
L 100.164966 257.026121 
L 104.011061 169.077123 
L 104.192143 204.256722 
L 104.526551 257.026121 
L 105.673982 257.026121 
L 110.282355 116.307723 
L 110.659291 213.051622 
L 110.852595 257.026121 
L 111.538153 257.026121 
L 116.511166 125.102623 
L 116.964547 257.026121 
L 118.856744 257.026121 
L 122.783892 151.487323 
L 122.896879 204.256722 
L 123.062262 230.641422 
L 123.118361 257.026121 
L 125.161314 257.026121 
L 129.052222 125.102623 
L 129.296224 195.461822 
L 129.53493 257.026121 
L 131.430887 257.026121 
L 136.045341 160.282223 
L 136.270294 195.461822 
L 136.33656 195.461822 
L 136.509104 248.231221 
L 136.585636 257.026121 
L 136.670332 248.231221 
L 136.675501 257.026121 
L 137.260796 257.026121 
L 142.307515 98.717924 
L 142.740985 221.846522 
L 143.025967 257.026121 
L 143.938855 257.026121 
L 147.758118 169.077123 
L 147.84305 195.461822 
L 148.037471 257.026121 
L 149.001858 257.026121 
L 154.009227 116.307723 
L 154.272211 177.872022 
L 154.525917 257.026121 
L 160.267012 257.026121 
L 160.292141 81.128124 
L 160.393723 89.923024 
L 160.408073 89.923024 
L 160.582122 142.692423 
L 160.683063 142.692423 
L 160.704835 125.102623 
L 160.71344 133.897523 
L 160.937184 160.282223 
L 161.206449 257.026121 
L 162.329443 257.026121 
L 166.527741 142.692423 
L 166.844048 239.436321 
L 166.861723 257.026121 
L 172.745815 257.026121 
L 168.961214 257.026121 
L 172.775423 177.872022 
L 173.058018 213.051622 
L 173.17055 230.641422 
L 173.242908 257.026121 
L 175.005663 257.026121 
L 175.082625 248.231221 
L 175.100116 257.026121 
L 175.212132 257.026121 
L 179.81106 89.923024 
L 180.0485 125.102623 
L 180.068484 125.102623 
L 180.448218 213.051622 
L 180.594828 257.026121 
L 181.356063 257.026121 
L 186.066543 133.897523 
L 186.192806 177.872022 
L 186.528178 248.231221 
L 186.54299 257.026121 
L 187.697858 257.026121 
L 191.513079 151.487323 
L 191.886544 248.231221 
L 191.943657 239.436321 
L 192.031248 257.026121 
L 192.879515 257.026121 
L 197.757477 98.717924 
L 197.89844 125.102623 
L 197.908078 107.512824 
L 197.960771 125.102623 
L 198.270221 204.256722 
L 198.415849 248.231221 
L 198.437475 257.026121 
L 204.016619 257.026121 
L 204.058249 160.282223 
L 204.135107 186.666922 
L 204.255897 221.846522 
L 204.411393 248.231221 
L 204.46307 248.231221 
L 204.498109 257.026121 
L 205.97492 257.026121 
L 210.260547 160.282223 
L 210.489466 257.026121 
L 216.526697 257.026121 
L 212.000332 257.026121 
L 216.535161 142.692423 
L 216.717611 213.051622 
L 216.930422 257.026121 
L 218.945838 257.026121 
L 223.544254 151.487323 
L 223.69291 195.461822 
L 223.860898 230.641422 
L 223.998176 257.026121 
L 225.1761 257.026121 
L 229.800776 89.923024 
L 230.123876 160.282223 
L 230.177247 151.487323 
L 230.257814 160.282223 
L 230.299093 151.487323 
L 230.319503 169.077123 
L 230.643963 257.026121 
L 248.542954 257.026121 
L 235.299524 63.538324 
L 235.533843 133.897523 
L 235.954178 257.026121 
L 236.686694 257.026121 
L 241.505236 116.307723 
L 241.689089 177.872022 
L 241.900827 257.026121 
L 242.213388 257.026121 
L 247.752622 54.743425 
L 247.919826 116.307723 
L 248.018425 142.692423 
L 248.12558 169.077123 
L 248.41981 257.026121 
L 254.832288 257.026121 
L 254.016456 160.282223 
L 254.099225 177.872022 
L 254.316922 257.026121 
L 256.41254 257.026121 
L 260.258016 81.128124 
L 260.495595 160.282223 
L 260.628755 186.666922 
L 260.990155 257.026121 
L 262.484494 257.026121 
L 267.296714 133.897523 
L 267.439504 169.077123 
L 267.718696 221.846522 
L 267.742803 221.846522 
L 267.970999 257.026121 
L 268.900869 257.026121 
L 273.533292 133.897523 
L 273.712958 177.872022 
L 273.768245 177.872022 
L 274.152393 257.026121 
L 275.213562 257.026121 
L 279.022981 204.256722 
L 279.119671 257.026121 
L 280.547746 257.026121 
L 285.254735 142.692423 
L 285.538224 257.026121 
L 286.699742 257.026121 
L 291.520118 116.307723 
L 291.681721 169.077123 
L 291.732759 169.077123 
L 291.85857 195.461822 
L 292.157699 257.026121 
L 297.805742 257.026121 
L 293.884848 257.026121 
L 297.844535 142.692423 
L 298.207986 221.846522 
L 298.370122 257.026121 
L 304.018984 257.026121 
L 300.114465 257.026121 
L 304.036748 160.282223 
L 304.2621 239.436321 
L 304.495241 257.026121 
L 306.405568 257.026121 
L 311.050503 98.717924 
L 311.29105 160.282223 
L 311.606633 239.436321 
L 311.766928 257.026121 
L 312.661657 257.026121 
L 317.293838 151.487323 
L 317.532281 213.051622 
L 317.778003 257.026121 
L 318.935461 257.026121 
L 322.788518 195.461822 
L 323.021039 257.026121 
L 324.008911 257.026121 
L 329.007224 89.923024 
L 329.141912 133.897523 
L 329.551062 221.846522 
L 329.82792 257.026121 
L 330.60603 257.026121 
L 335.29267 89.923024 
L 335.437683 125.102623 
L 335.487341 125.102623 
L 335.68147 160.282223 
L 336.075979 257.026121 
L 342.275816 257.026121 
L 341.52749 89.923024 
L 341.810386 177.872022 
L 342.087534 248.231221 
L 342.232251 257.026121 
L 343.785182 257.026121 
L 347.76131 98.717924 
L 347.933686 142.692423 
L 348.097906 186.666922 
L 348.350071 257.026121 
L 350.032367 257.026121 
L 354.789101 116.307723 
L 355.107266 213.051622 
L 355.124852 213.051622 
L 355.245469 257.026121 
L 356.416705 257.026121 
L 361.142743 125.102623 
L 361.196249 142.692423 
L 361.392005 142.692423 
L 361.583738 213.051622 
L 361.626672 213.051622 
L 361.794683 257.026121 
L 379.792106 257.026121 
L 366.534151 160.282223 
L 366.964726 257.026121 
L 367.884533 257.026121 
L 372.751648 98.717924 
L 373.537673 257.026121 
L 379.00037 257.026121 
L 379.030313 116.307723 
L 379.078456 125.102623 
L 379.286841 169.077123 
L 379.629446 257.026121 
L 386.026932 257.026121 
L 385.280512 133.897523 
L 385.71334 221.846522 
L 385.888278 257.026121 
L 386.777606 257.026121 
L 386.749828 248.231221 
L 386.818872 257.026121 
L 387.714562 257.026121 
L 391.539792 204.256722 
L 391.656854 257.026121 
L 398.528254 257.026121 
L 398.541562 81.128124 
L 398.645822 98.717924 
L 398.832435 142.692423 
L 399.184615 239.436321 
L 399.251914 257.026121 
L 399.997209 257.026121 
L 404.788959 125.102623 
L 404.805385 116.307723 
L 404.853782 125.102623 
L 405.021575 186.666922 
L 405.113155 213.051622 
L 405.345181 248.231221 
L 405.371647 257.026121 
L 406.459613 257.026121 
L 410.264913 177.872022 
L 410.45963 257.026121 
L 411.743632 257.026121 
L 416.521852 81.128124 
L 416.690873 125.102623 
L 416.772086 142.692423 
L 416.897256 169.077123 
L 416.961237 169.077123 
L 417.259677 257.026121 
L 422.754396 257.026121 
L 422.760726 151.487323 
L 422.867641 186.666922 
L 423.130433 257.026121 
L 425.204164 257.026121 
L 429.802633 248.231221 
L 429.028793 151.487323 
L 429.144504 177.872022 
L 429.361358 257.026121 
L 431.396475 257.026121 
L 435.256471 142.692423 
L 435.416725 169.077123 
L 435.798121 257.026121 
L 437.563727 257.026121 
L 442.29218 133.897523 
L 442.577662 195.461822 
L 442.595719 195.461822 
L 442.739529 257.026121 
L 443.825128 257.026121 
L 448.543865 125.102623 
L 449.187103 257.026121 
L 450.09514 257.026121 
L 454.030785 107.512824 
L 454.287129 169.077123 
L 454.53271 248.231221 
L 454.643228 257.026121 
L 455.670066 257.026121 
L 460.261517 89.923024 
L 460.495737 160.282223 
L 460.692464 186.666922 
L 460.871696 257.026121 
L 461.623806 257.026121 
L 466.510786 142.692423 
L 466.986939 257.026121 
L 468.901173 257.026121 
L 472.747008 186.666922 
L 473.045288 257.026121 
L 479.796346 257.026121 
L 479.016463 186.666922 
L 479.039284 195.461822 
L 479.257345 257.026121 
L 481.440544 257.026121 
L 486.039161 160.282223 
L 486.507403 257.026121 
L 487.639656 257.026121 
L 492.300416 142.692423 
L 492.481386 204.256722 
L 492.646786 248.231221 
L 492.66827 257.026121 
L 493.864747 257.026121 
L 497.765298 204.256722 
L 497.905005 248.231221 
L 497.93695 257.026121 
L 499.388794 257.026121 
L 504.015926 142.692423 
L 504.321103 230.641422 
L 504.387684 257.026121 
L 505.647783 257.026121 
L 510.25495 37.153625 
L 510.47977 98.717924 
L 511.025302 257.026121 
L 512.40045 257.026121 
L 516.502437 204.256722 
L 516.772665 257.026121 
L 518.887449 257.026121 
L 522.773075 195.461822 
L 522.94517 257.026121 
L 525.15189 257.026121 
L 529.80791 116.307723 
L 529.937807 151.487323 
L 530.326449 239.436321 
L 530.375993 257.026121 
L 531.359334 257.026121 
L 536.081281 54.743425 
L 536.238834 116.307723 
L 536.436992 142.692423 
L 536.51818 142.692423 
L 536.716721 186.666922 
L 536.830196 204.256722 
L 536.979299 257.026121 
L 554.775882 257.026121 
L 541.549427 133.897523 
L 541.568009 133.897523 
L 541.946532 257.026121 
L 542.894005 257.026121 
L 547.760112 133.897523 
L 547.94605 177.872022 
L 548.07531 204.256722 
L 548.233303 257.026121 
L 548.772727 257.026121 
L 554.040158 151.487323 
L 554.254488 221.846522 
L 554.340226 257.026121 
L 556.414053 257.026121 
L 560.26347 125.102623 
L 560.661045 257.026121 
L 566.518384 257.026121 
L 562.265024 257.026121 
L 566.535314 160.282223 
L 566.735564 230.641422 
L 566.784838 221.846522 
L 566.80358 230.641422 
L 567.021733 257.026121 
L 568.669708 257.026121 
L 573.558828 133.897523 
L 573.877204 186.666922 
L 573.915195 186.666922 
L 574.101459 239.436321 
L 574.288383 257.026121 
L 575.009046 257.026121 
L 579.789451 195.461822 
L 580.142016 257.026121 
L 581.35 257.026121 
L 585.278854 151.487323 
L 585.414251 204.256722 
L 585.701693 257.026121 
L 586.818291 257.026121 
L 591.506859 107.512824 
L 591.8367 221.846522 
L 591.935341 221.846522 
L 592.097066 257.026121 
L 593.001144 257.026121 
L 597.795763 125.102623 
L 598.200454 248.231221 
L 598.280938 248.231221 
L 598.383248 257.026121 
L 600.104146 257.026121 
L 604.010657 177.872022 
L 604.354315 257.026121 
L 605.639611 257.026121 
L 610.251619 230.641422 
L 610.322405 257.026121 
L 610.322405 257.026121 
" clip-path="url(#pf1664aefcc)" style="fill: none; stroke: #2ca02c; stroke-width: 0.8; stroke-linecap: square"/>
   </g>
   <g id="patch_3">
    <path d="M 45.8929 268.019746 
L 45.8929 26.16 
" style="fill: none; stroke: #000000; stroke-width: 0.8; stroke-linejoin: miter; stroke-linecap: square"/>
   </g>
   <g id="patch_4">
    <path d="M 637.2 268.019746 
L 637.2 26.16 
" style="fill: none; stroke: #000000; stroke-width: 0.8; stroke-linejoin: miter; stroke-linecap: square"/>
   </g>
   <g id="patch_5">
    <path d="M 45.8929 268.019746 
L 637.2 268.019746 
" style="fill: none; stroke: #000000; stroke-width: 0.8; stroke-linejoin: miter; stroke-linecap: square"/>
   </g>
   <g id="patch_6">
    <path d="M 45.8929 26.16 
L 637.2 26.16 
" style="fill: none; stroke: #000000; stroke-width: 0.8; stroke-linejoin: miter; stroke-linecap: square"/>
   </g>
   <g id="text_14">
    <!-- Queue backlog over holdout months, by dispatch policy -->
    <g transform="translate(173.852075 20.16) scale(0.12 -0.12)">
     <defs>
      <path id="DejaVuSans-34" d="M 2522 4238 
Q 1834 4238 1429 3725 
Q 1025 3213 1025 2328 
Q 1025 1447 1429 934 
Q 1834 422 2522 422 
Q 3209 422 3611 934 
Q 4013 1447 4013 2328 
Q 4013 3213 3611 3725 
Q 3209 4238 2522 4238 
z
M 3406 84 
L 4238 -825 
L 3475 -825 
L 2784 -78 
Q 2681 -84 2626 -87 
Q 2572 -91 2522 -91 
Q 1538 -91 948 567 
Q 359 1225 359 2328 
Q 359 3434 948 4092 
Q 1538 4750 2522 4750 
Q 3503 4750 4090 4092 
Q 4678 3434 4678 2328 
Q 4678 1516 4351 937 
Q 4025 359 3406 84 
z
" transform="scale(0.015625)"/>
      <path id="DejaVuSans-58" d="M 544 1381 
L 544 3500 
L 1119 3500 
L 1119 1403 
Q 1119 906 1312 657 
Q 1506 409 1894 409 
Q 2359 409 2629 706 
Q 2900 1003 2900 1516 
L 2900 3500 
L 3475 3500 
L 3475 0 
L 2900 0 
L 2900 538 
Q 2691 219 2414 64 
Q 2138 -91 1772 -91 
Q 1169 -91 856 284 
Q 544 659 544 1381 
z
M 1991 3584 
L 1991 3584 
z
" transform="scale(0.015625)"/>
      <path id="DejaVuSans-45" d="M 3116 1747 
Q 3116 2381 2855 2742 
Q 2594 3103 2138 3103 
Q 1681 3103 1420 2742 
Q 1159 2381 1159 1747 
Q 1159 1113 1420 752 
Q 1681 391 2138 391 
Q 2594 391 2855 752 
Q 3116 1113 3116 1747 
z
M 1159 2969 
Q 1341 3281 1617 3432 
Q 1894 3584 2278 3584 
Q 2916 3584 3314 3078 
Q 3713 2572 3713 1747 
Q 3713 922 3314 415 
Q 2916 -91 2278 -91 
Q 1894 -91 1617 61 
Q 1341 213 1159 525 
L 1159 0 
L 581 0 
L 581 4863 
L 1159 4863 
L 1159 2969 
z
" transform="scale(0.015625)"/>
      <path id="DejaVuSans-46" d="M 3122 3366 
L 3122 2828 
Q 2878 2963 2633 3030 
Q 2388 3097 2138 3097 
Q 1578 3097 1268 2742 
Q 959 2388 959 1747 
Q 959 1106 1268 751 
Q 1578 397 2138 397 
Q 2388 397 2633 464 
Q 2878 531 3122 666 
L 3122 134 
Q 2881 22 2623 -34 
Q 2366 -91 2075 -91 
Q 1284 -91 818 406 
Q 353 903 353 1747 
Q 353 2603 823 3093 
Q 1294 3584 2113 3584 
Q 2378 3584 2631 3529 
Q 2884 3475 3122 3366 
z
" transform="scale(0.015625)"/>
      <path id="DejaVuSans-4e" d="M 581 4863 
L 1159 4863 
L 1159 1991 
L 2875 3500 
L 3609 3500 
L 1753 1863 
L 3688 0 
L 2938 0 
L 1159 1709 
L 1159 0 
L 581 0 
L 581 4863 
z
" transform="scale(0.015625)"/>
      <path id="DejaVuSans-52" d="M 1959 3097 
Q 1497 3097 1228 2736 
Q 959 2375 959 1747 
Q 959 1119 1226 758 
Q 1494 397 1959 397 
Q 2419 397 2687 759 
Q 2956 1122 2956 1747 
Q 2956 2369 2687 2733 
Q 2419 3097 1959 3097 
z
M 1959 3584 
Q 2709 3584 3137 3096 
Q 3566 2609 3566 1747 
Q 3566 888 3137 398 
Q 2709 -91 1959 -91 
Q 1206 -91 779 398 
Q 353 888 353 1747 
Q 353 2609 779 3096 
Q 1206 3584 1959 3584 
z
" transform="scale(0.015625)"/>
      <path id="DejaVuSans-59" d="M 191 3500 
L 800 3500 
L 1894 563 
L 2988 3500 
L 3597 3500 
L 2284 0 
L 1503 0 
L 191 3500 
z
" transform="scale(0.015625)"/>
      <path id="DejaVuSans-4b" d="M 3513 2113 
L 3513 0 
L 2938 0 
L 2938 2094 
Q 2938 2591 2744 2837 
Q 2550 3084 2163 3084 
Q 1697 3084 1428 2787 
Q 1159 2491 1159 1978 
L 1159 0 
L 581 0 
L 581 4863 
L 1159 4863 
L 1159 2956 
Q 1366 3272 1645 3428 
Q 1925 3584 2291 3584 
Q 2894 3584 3203 3211 
Q 3513 2838 3513 2113 
z
" transform="scale(0.015625)"/>
      <path id="DejaVuSans-50" d="M 3328 2828 
Q 3544 3216 3844 3400 
Q 4144 3584 4550 3584 
Q 5097 3584 5394 3201 
Q 5691 2819 5691 2113 
L 5691 0 
L 5113 0 
L 5113 2094 
Q 5113 2597 4934 2840 
Q 4756 3084 4391 3084 
Q 3944 3084 3684 2787 
Q 3425 2491 3425 1978 
L 3425 0 
L 2847 0 
L 2847 2094 
Q 2847 2600 2669 2842 
Q 2491 3084 2119 3084 
Q 1678 3084 1418 2786 
Q 1159 2488 1159 1978 
L 1159 0 
L 581 0 
L 581 3500 
L 1159 3500 
L 1159 2956 
Q 1356 3278 1631 3431 
Q 1906 3584 2284 3584 
Q 2666 3584 2933 3390 
Q 3200 3197 3328 2828 
z
" transform="scale(0.015625)"/>
      <path id="DejaVuSans-f" d="M 750 794 
L 1409 794 
L 1409 256 
L 897 -744 
L 494 -744 
L 750 256 
L 750 794 
z
" transform="scale(0.015625)"/>
      <path id="DejaVuSans-5c" d="M 2059 -325 
Q 1816 -950 1584 -1140 
Q 1353 -1331 966 -1331 
L 506 -1331 
L 506 -850 
L 844 -850 
Q 1081 -850 1212 -737 
Q 1344 -625 1503 -206 
L 1606 56 
L 191 3500 
L 800 3500 
L 1894 763 
L 2988 3500 
L 3597 3500 
L 2059 -325 
z
" transform="scale(0.015625)"/>
     </defs>
     <use xlink:href="#DejaVuSans-34"/>
     <use xlink:href="#DejaVuSans-58" transform="translate(78.71875 0)"/>
     <use xlink:href="#DejaVuSans-48" transform="translate(142.09375 0)"/>
     <use xlink:href="#DejaVuSans-58" transform="translate(203.625 0)"/>
     <use xlink:href="#DejaVuSans-48" transform="translate(267 0)"/>
     <use xlink:href="#DejaVuSans-3" transform="translate(328.53125 0)"/>
     <use xlink:href="#DejaVuSans-45" transform="translate(360.3125 0)"/>
     <use xlink:href="#DejaVuSans-44" transform="translate(423.796875 0)"/>
     <use xlink:href="#DejaVuSans-46" transform="translate(485.078125 0)"/>
     <use xlink:href="#DejaVuSans-4e" transform="translate(540.0625 0)"/>
     <use xlink:href="#DejaVuSans-4f" transform="translate(597.96875 0)"/>
     <use xlink:href="#DejaVuSans-52" transform="translate(625.75 0)"/>
     <use xlink:href="#DejaVuSans-4a" transform="translate(686.9375 0)"/>
     <use xlink:href="#DejaVuSans-3" transform="translate(750.421875 0)"/>
     <use xlink:href="#DejaVuSans-52" transform="translate(782.203125 0)"/>
     <use xlink:href="#DejaVuSans-59" transform="translate(843.390625 0)"/>
     <use xlink:href="#DejaVuSans-48" transform="translate(902.578125 0)"/>
     <use xlink:href="#DejaVuSans-55" transform="translate(964.109375 0)"/>
     <use xlink:href="#DejaVuSans-3" transform="translate(1005.21875 0)"/>
     <use xlink:href="#DejaVuSans-4b" transform="translate(1037 0)"/>
     <use xlink:href="#DejaVuSans-52" transform="translate(1100.375 0)"/>
     <use xlink:href="#DejaVuSans-4f" transform="translate(1161.5625 0)"/>
     <use xlink:href="#DejaVuSans-47" transform="translate(1189.34375 0)"/>
     <use xlink:href="#DejaVuSans-52" transform="translate(1252.828125 0)"/>
     <use xlink:href="#DejaVuSans-58" transform="translate(1314.015625 0)"/>
     <use xlink:href="#DejaVuSans-57" transform="translate(1377.390625 0)"/>
     <use xlink:href="#DejaVuSans-3" transform="translate(1416.59375 0)"/>
     <use xlink:href="#DejaVuSans-50" transform="translate(1448.375 0)"/>
     <use xlink:href="#DejaVuSans-52" transform="translate(1545.78125 0)"/>
     <use xlink:href="#DejaVuSans-51" transform="translate(1606.96875 0)"/>
     <use xlink:href="#DejaVuSans-57" transform="translate(1670.34375 0)"/>
     <use xlink:href="#DejaVuSans-4b" transform="translate(1709.546875 0)"/>
     <use xlink:href="#DejaVuSans-56" transform="translate(1772.921875 0)"/>
     <use xlink:href="#DejaVuSans-f" transform="translate(1825.015625 0)"/>
     <use xlink:href="#DejaVuSans-3" transform="translate(1856.796875 0)"/>
     <use xlink:href="#DejaVuSans-45" transform="translate(1888.578125 0)"/>
     <use xlink:href="#DejaVuSans-5c" transform="translate(1952.0625 0)"/>
     <use xlink:href="#DejaVuSans-3" transform="translate(2011.25 0)"/>
     <use xlink:href="#DejaVuSans-47" transform="translate(2043.03125 0)"/>
     <use xlink:href="#DejaVuSans-4c" transform="translate(2106.515625 0)"/>
     <use xlink:href="#DejaVuSans-56" transform="translate(2134.296875 0)"/>
     <use xlink:href="#DejaVuSans-53" transform="translate(2186.390625 0)"/>
     <use xlink:href="#DejaVuSans-44" transform="translate(2249.875 0)"/>
     <use xlink:href="#DejaVuSans-57" transform="translate(2311.15625 0)"/>
     <use xlink:href="#DejaVuSans-46" transform="translate(2350.359375 0)"/>
     <use xlink:href="#DejaVuSans-4b" transform="translate(2405.34375 0)"/>
     <use xlink:href="#DejaVuSans-3" transform="translate(2468.71875 0)"/>
     <use xlink:href="#DejaVuSans-53" transform="translate(2500.5 0)"/>
     <use xlink:href="#DejaVuSans-52" transform="translate(2563.984375 0)"/>
     <use xlink:href="#DejaVuSans-4f" transform="translate(2625.171875 0)"/>
     <use xlink:href="#DejaVuSans-4c" transform="translate(2652.953125 0)"/>
     <use xlink:href="#DejaVuSans-46" transform="translate(2680.734375 0)"/>
     <use xlink:href="#DejaVuSans-5c" transform="translate(2735.71875 0)"/>
    </g>
   </g>
   <g id="legend_1">
    <g id="patch_7">
     <path d="M 571.329687 79.162344 
L 630.2 79.162344 
Q 632.2 79.162344 632.2 77.162344 
L 632.2 33.16 
Q 632.2 31.16 630.2 31.16 
L 571.329687 31.16 
Q 569.329687 31.16 569.329687 33.16 
L 569.329687 77.162344 
Q 569.329687 79.162344 571.329687 79.162344 
z
" style="fill: #ffffff; opacity: 0.8; stroke: #cccccc; stroke-linejoin: miter"/>
    </g>
    <g id="line2d_16">
     <path d="M 573.329687 39.258438 
L 583.329687 39.258438 
L 593.329687 39.258438 
" style="fill: none; stroke: #1f77b4; stroke-width: 0.8; stroke-linecap: square"/>
    </g>
    <g id="text_15">
     <!-- fifo -->
     <g transform="translate(601.329687 42.758438) scale(0.1 -0.1)">
      <defs>
       <path id="DejaVuSans-13af" d="M 3431 3500 
L 3431 0 
L 2853 0 
L 2853 3053 
L 1275 3053 
L 1275 0 
L 697 0 
L 697 3053 
L 147 3053 
L 147 3500 
L 697 3500 
L 697 3744 
Q 697 4316 967 4589 
Q 1238 4863 1797 4863 
L 2375 4863 
L 2375 4384 
L 1825 4384 
Q 1516 4384 1395 4259 
Q 1275 4134 1275 3809 
L 1275 3500 
L 3431 3500 
z
M 2853 4856 
L 3431 4856 
L 3431 4128 
L 2853 4128 
L 2853 4856 
z
" transform="scale(0.015625)"/>
       <path id="DejaVuSans-49" d="M 2375 4863 
L 2375 4384 
L 1825 4384 
Q 1516 4384 1395 4259 
Q 1275 4134 1275 3809 
L 1275 3500 
L 2222 3500 
L 2222 3053 
L 1275 3053 
L 1275 0 
L 697 0 
L 697 3053 
L 147 3053 
L 147 3500 
L 697 3500 
L 697 3744 
Q 697 4328 969 4595 
Q 1241 4863 1831 4863 
L 2375 4863 
z
" transform="scale(0.015625)"/>
      </defs>
      <use xlink:href="#DejaVuSans-13af"/>
      <use xlink:href="#DejaVuSans-49" transform="translate(62.984375 0)"/>
      <use xlink:href="#DejaVuSans-52" transform="translate(98.1875 0)"/>
     </g>
    </g>
    <g id="line2d_17">
     <path d="M 573.329687 54.259219 
L 583.329687 54.259219 
L 593.329687 54.259219 
" style="fill: none; stroke: #ff7f0e; stroke-width: 0.8; stroke-linecap: square"/>
    </g>
    <g id="text_16">
     <!-- score -->
     <g transform="translate(601.329687 57.759219) scale(0.1 -0.1)">
      <use xlink:href="#DejaVuSans-56"/>
      <use xlink:href="#DejaVuSans-46" transform="translate(52.09375 0)"/>
      <use xlink:href="#DejaVuSans-52" transform="translate(107.078125 0)"/>
      <use xlink:href="#DejaVuSans-55" transform="translate(168.265625 0)"/>
      <use xlink:href="#DejaVuSans-48" transform="translate(207.171875 0)"/>
     </g>
    </g>
    <g id="line2d_18">
     <path d="M 573.329687 69.26 
L 583.329687 69.26 
L 593.329687 69.26 
" style="fill: none; stroke: #2ca02c; stroke-width: 0.8; stroke-linecap: square"/>
    </g>
    <g id="text_17">
     <!-- llm -->
     <g transform="translate(601.329687 72.76) scale(0.1 -0.1)">
      <use xlink:href="#DejaVuSans-4f"/>
      <use xlink:href="#DejaVuSans-4f" transform="translate(27.78125 0)"/>
      <use xlink:href="#DejaVuSans-50" transform="translate(55.5625 0)"/>
     </g>
    </g>
   </g>
  </g>
 </g>
 <defs>
  <clipPath id="pf1664aefcc">
   <rect x="45.8929" y="26.16" width="591.3071" height="241.859746"/>
  </clipPath>
 </defs>
</svg>
